<svg width="24" height="24" viewBox="0 0 24 24" fill="none" xmlns="http://www.w3.org/2000/svg">
<path d="M17.25 6.75H3.75C3.35218 6.75 2.97064 6.90804 2.68934 7.18934C2.40804 7.47064 2.25 7.85218 2.25 8.25V18.75C2.25 19.1478 2.40804 19.5294 2.68934 19.8107C2.97064 20.092 3.35218 20.25 3.75 20.25H17.25C17.6478 20.25 18.0294 20.092 18.3107 19.8107C18.592 19.5294 18.75 19.1478 18.75 18.75V8.25C18.75 7.85218 18.592 7.47064 18.3107 7.18934C18.0294 6.90804 17.6478 6.75 17.25 6.75ZM17.25 18.75H3.75V8.25H17.25V18.75ZM21.75 5.25V16.5C21.75 16.6989 21.671 16.8897 21.5303 17.0303C21.3897 17.171 21.1989 17.25 21 17.25C20.8011 17.25 20.6103 17.171 20.4697 17.0303C20.329 16.8897 20.25 16.6989 20.25 16.5V5.25H6C5.80109 5.25 5.61032 5.17098 5.46967 5.03033C5.32902 4.88968 5.25 4.69891 5.25 4.5C5.25 4.30109 5.32902 4.11032 5.46967 3.96967C5.61032 3.82902 5.80109 3.75 6 3.75H20.25C20.6478 3.75 21.0294 3.90804 21.3107 4.18934C21.592 4.47064 21.75 4.85218 21.75 5.25Z" fill="#37437D"/>
</svg>
