<svg width="103" height="100" viewBox="0 0 103 100" fill="none" xmlns="http://www.w3.org/2000/svg">
<g clip-path="url(#clip0_498_10012)">
<path opacity="0.3" d="M96.5417 67.5367C86.4704 91.0075 59.8853 101.089 39.0555 99.3699C33.3681 98.9006 21.925 97.9563 12.99 89.5319C-4.16885 73.3533 -1.52619 39.5357 14.8998 19.6258C17.0151 17.0618 31.6571 -0.116705 54.4738 0.113249C71.179 0.281606 82.9042 9.69017 84.3299 10.8623C86.131 12.343 90.1035 15.8617 93.6837 21.4438C102.096 34.5598 102.835 52.8698 96.5417 67.5367Z" fill="url(#paint0_linear_498_10012)"/>
<path d="M27.9531 62.1863C27.9531 62.1863 28.2604 49.3024 22.3086 45.854C16.3568 42.4057 5.04026 40.2498 4.61611 21.7498C4.36774 10.9191 4.09898 6.18365 3.91883 4.11883C3.84855 3.31337 4.56644 2.66323 5.36333 2.81288C11.0002 3.87163 29.312 8.2295 33.1512 20.6911C37.7025 35.4644 27.9531 62.1863 27.9531 62.1863Z" fill="url(#paint1_linear_498_10012)"/>
<path d="M9.72326 7.9602C15.9109 13.4623 23.0657 23.1999 26.8793 32.9376C27.3688 34.5424 28.8007 37.9552 29.4225 44.0189C29.9779 49.0761 29.7018 54.42 29.0284 57.9575C28.9858 58.1811 28.7694 58.328 28.5451 58.2855C28.1594 58.2126 28.2107 57.799 28.2142 57.8121C28.9833 51.7683 28.6641 44.2458 26.9018 37.4583C24.6503 29.1241 19.6286 21.0437 14.4345 14.1904L13.9 13.5156C9.87589 8.36295 9.02874 8.32498 9.40494 7.96581C9.49377 7.88099 9.63286 7.88022 9.72326 7.9602Z" fill="#37437D"/>
<path d="M37.5184 86.9573C38.3236 87.351 29.895 76.7833 27.2547 60.186C26.0105 52.3649 25.9943 42.5657 21.5258 38.7895C17.8068 35.6466 5.15167 37.6308 1.0109 38.3849C0.493472 38.4791 0.319279 39.1307 0.722048 39.468C2.70778 41.1307 6.95563 45.0527 8.06242 49.0053C9.52128 54.2151 14.4891 57.5289 18.9366 58.4257C23.384 59.3225 25.8581 60.1928 28.0248 67.2842C30.1914 74.3756 35.2303 85.8387 37.5184 86.9573Z" fill="url(#paint2_linear_498_10012)"/>
<path d="M6.83327 40.5861C12.1163 40.8067 17.7871 43.2095 20.6649 47.7166L20.9365 48.1467C21.5639 49.1551 25.1193 56.3241 27.0939 62.2668C27.1185 62.3408 27.0782 62.4208 27.0039 62.4453C26.8777 62.487 26.8145 62.3485 26.8266 62.3608C25.4508 59.0036 23.4748 54.7473 21.9011 51.5643C20.2134 48.0911 19.0323 45.7389 15.1828 43.4859C10.8981 41.0595 6.80475 40.8097 6.817 40.8122C6.75452 40.8059 6.70904 40.7502 6.71544 40.6879C6.72152 40.6279 6.77373 40.5837 6.83327 40.5861Z" fill="#EEEFFF"/>
<path d="M33.905 88.3475C34.3828 88.5987 31.2133 83.1594 30.9701 78.3673C30.7269 73.5752 29.6425 65.3961 25.4978 60.5034C21.353 55.6108 16.814 55.1644 11.0948 59.6123C6.32871 63.3188 3.35574 65.1894 1.61223 65.5371C1.1805 65.6232 0.960201 66.1091 1.17027 66.4949C2.28854 68.5481 5.45017 73.2644 10.7587 72.9324C17.53 72.5089 25.7364 68.12 28.2376 71.7812C30.7388 75.4424 30.4176 77.491 30.4944 79.2261C30.5713 80.9613 30.7426 86.6851 33.905 88.3475Z" fill="url(#paint3_linear_498_10012)"/>
<path d="M13.017 65.487C15.0914 63.5042 18.4698 61.5557 21.4225 61.9191C25.2641 62.536 27.8231 65.0938 29.219 68.9013C29.7647 70.5179 29.9892 71.3809 30.3118 73.3626C30.3376 73.5208 30.1035 73.5681 30.0645 73.4136C29.8298 72.4828 29.5972 71.5082 29.2494 70.5001C27.2245 63.9967 22.9022 63.1207 22.734 62.9876C22.4072 63.0198 20.4262 61.5412 15.7256 64.0631C14.8478 64.5394 13.9934 65.0832 13.1912 65.683L13.1867 65.6863C13.1286 65.7297 13.0463 65.718 13.0028 65.6601C12.9625 65.6065 12.9696 65.5322 13.017 65.487Z" fill="#37437D"/>
<path d="M23.6727 0.392927C21.0644 0.619066 19.0646 2.79703 19.0572 5.40735C19.0118 21.3707 18.9369 76.4324 19.9805 95.9212C20.091 97.9859 21.7887 99.6078 23.8623 99.6301C34.1186 99.7402 63.6203 99.9424 80.3685 98.8743C83.8569 98.6518 86.5715 95.7712 86.5672 92.286C86.5469 75.532 86.2784 28.4137 83.9766 6.87655C83.7008 4.29606 81.6203 2.28187 79.0253 2.08027C67.8394 1.2113 38.1348 -0.861108 23.6727 0.392927Z" fill="url(#paint4_linear_498_10012)"/>
<path d="M23.1747 9.59081C22.9733 23.246 22.3999 68.6712 23.4009 85.4369C23.5472 87.8874 25.4564 89.8221 27.8138 89.904C37.5199 90.2413 62.4095 90.8938 76.5921 89.3379C79.1459 89.0578 81.0977 86.8508 81.1657 84.1783C81.5205 70.2432 82.4787 27.9349 81.5058 11.3567C81.3505 8.71205 79.324 6.60181 76.7837 6.43115C66.2743 5.7251 39.2876 4.09682 27.2272 5.0982C24.9632 5.28614 23.2096 7.22674 23.1747 9.59081Z" fill="url(#paint5_linear_498_10012)"/>
<path d="M46.6253 2.76713C46.6336 3.14439 46.9353 3.44907 47.3136 3.46056C49.1813 3.51713 54.4424 3.67771 56.7939 3.7622C57.2575 3.77885 57.6119 3.35589 57.5141 2.90368C57.506 2.88945 57.4458 2.30965 56.8519 2.26852C55.2612 2.15824 50.4622 1.86093 47.2908 2.04334C46.6396 2.08079 46.6042 2.81919 46.6253 2.76713Z" fill="#EEEFFF"/>
<path opacity="0.5" d="M50.0066 87.3218H27.3977C26.9775 87.3218 26.6367 86.9821 26.6367 86.563V72.4693C26.6367 72.09 26.9451 71.7825 27.3256 71.7825H49.9683C50.2854 71.7825 50.5426 72.0388 50.5426 72.3551V86.7874C50.5426 87.0825 50.3026 87.3218 50.0066 87.3218Z" fill="white"/>
<path opacity="0.5" d="M76.9541 86.9285H54.3738C54.0207 86.9285 53.7344 86.643 53.7344 86.2909V72.0547C53.7344 71.6871 54.0332 71.3892 54.4019 71.3892H76.9996C77.3534 71.3892 77.6402 71.6751 77.6402 72.0279V86.2443C77.6403 86.6222 77.333 86.9285 76.9541 86.9285Z" fill="white"/>
<path opacity="0.5" d="M50.7487 69.4905H28.1399C27.7196 69.4905 27.3789 69.1508 27.3789 68.7317V54.638C27.3789 54.2587 27.6873 53.9512 28.0678 53.9512H50.7104C51.0276 53.9512 51.2848 54.2075 51.2848 54.5238V68.9561C51.2848 69.2512 51.0448 69.4905 50.7487 69.4905Z" fill="white"/>
<path opacity="0.5" d="M77.497 69.3163H54.9168C54.5636 69.3163 54.2773 69.0308 54.2773 68.6787V54.4425C54.2773 54.0749 54.5762 53.777 54.9449 53.777H77.5425C77.8964 53.777 78.1832 54.063 78.1832 54.4157V68.6321C78.1832 69.01 77.876 69.3163 77.497 69.3163Z" fill="white"/>
<path opacity="0.5" d="M34.6943 50.4722C38.4756 50.4722 41.5409 47.4159 41.5409 43.6458C41.5409 39.8757 38.4756 36.8195 34.6943 36.8195C30.913 36.8195 27.8477 39.8757 27.8477 43.6458C27.8477 47.4159 30.913 50.4722 34.6943 50.4722Z" fill="white"/>
<path opacity="0.5" d="M53.0498 51.0311C56.8311 51.0311 59.8964 47.9749 59.8964 44.2048C59.8964 40.4347 56.8311 37.3784 53.0498 37.3784C49.2685 37.3784 46.2031 40.4347 46.2031 44.2048C46.2031 47.9749 49.2685 51.0311 53.0498 51.0311Z" fill="white"/>
<path opacity="0.5" d="M71.4677 51.1219C75.249 51.1219 78.3144 48.0657 78.3144 44.2956C78.3144 40.5255 75.249 37.4692 71.4677 37.4692C67.6864 37.4692 64.6211 40.5255 64.6211 44.2956C64.6211 48.0657 67.6864 51.1219 71.4677 51.1219Z" fill="white"/>
<path opacity="0.5" d="M79.2315 29.0915C79.2696 30.6352 78.0201 31.9046 76.4714 31.8955L29.949 31.6231C28.2744 31.6061 26.9429 30.2169 27.0019 28.5482L27.0004 12.044C27.0002 9.75561 28.903 7.92306 31.1967 8.00249L76.3854 9.56701C77.7754 9.61584 78.8625 10.7789 78.8135 12.1648L79.2315 29.0915Z" fill="white"/>
<path opacity="0.5" d="M71.3119 28.1859C73.3347 26.1691 73.3347 22.8993 71.3119 20.8825C69.2891 18.8657 66.0096 18.8657 63.9868 20.8825C61.964 22.8992 61.964 26.1691 63.9868 28.1859C66.0096 30.2027 69.2892 30.2027 71.3119 28.1859Z" fill="white"/>
<path d="M67.7728 27.6699C69.4422 27.6699 70.7955 26.3205 70.7955 24.6561C70.7955 22.9916 69.4422 21.6423 67.7728 21.6423C66.1033 21.6423 64.75 22.9916 64.75 24.6561C64.75 26.3205 66.1033 27.6699 67.7728 27.6699Z" fill="white"/>
<path d="M85.3389 34.0369C85.3389 34.0369 86.8183 34.7544 87.0903 35.5786C87.3086 36.2398 88.9444 36.3251 89.106 37.6257C89.1894 38.2971 89.6878 38.8349 90.3586 38.9374C92.0293 39.1927 94.604 40.0577 95.0159 42.9498C95.3303 45.1573 94.2017 45.9944 93.0171 46.2841C92.1471 46.4969 91.569 47.3406 91.7449 48.2164C91.9137 49.0564 91.662 50.0274 90.2025 50.7953C86.9318 52.516 83.6655 46.7187 83.6655 46.7187L82.9961 36.5964L85.3389 34.0369Z" fill="url(#paint6_linear_498_10012)"/>
<path d="M69.9443 28.6988C69.9443 28.6988 74.1528 40.1377 81.3239 43.7128C81.3239 43.7128 78.9371 47.5956 77.6915 47.8311C77.6915 47.8311 70.031 38.0555 69.25 30.0466L69.9443 28.6988Z" fill="url(#paint7_linear_498_10012)"/>
<path d="M98.7818 97.5073L98.9934 99.242C99.0336 99.5711 99.2935 99.8314 99.6238 99.869C100.182 99.9325 101.077 99.9976 101.952 99.9053C102.337 99.8648 102.586 99.4767 102.469 99.1094C102.256 98.4397 101.865 97.4344 101.302 96.8428H99.372C99.0152 96.8428 98.7387 97.154 98.7818 97.5073Z" fill="url(#paint8_linear_498_10012)"/>
<path d="M83.6652 77.1855L83.3394 79.0962C83.3394 79.0962 84.4303 90.1139 84.6244 94.521C84.6548 95.212 84.4755 95.8948 84.1118 96.4837L82.2148 99.5551L87.036 96.7187L87.132 96.1321L86.3428 95.0502L87.3765 82.7076C87.4373 81.9826 87.2872 81.2554 86.9443 80.6131L85.9471 78.7453L83.6652 77.1855Z" fill="url(#paint9_linear_498_10012)"/>
<path d="M81.899 100H83.4375C83.7255 100 83.9971 99.8681 84.1727 99.6406C84.6524 99.0192 85.6461 97.8069 86.1213 97.7753C86.7609 97.7327 86.6791 100 86.6791 100H87.0376L87.4918 97.1826C87.6061 96.4737 87.2525 95.7715 86.6141 95.4394C86.6141 95.4394 86.4678 96.5175 85.675 96.9944C84.8822 97.4713 82.4486 99.1792 82.4486 99.1792C82.4486 99.1792 82.1506 99.1368 81.8233 99.1958C81.3379 99.2832 81.4057 100 81.899 100Z" fill="url(#paint10_linear_498_10012)"/>
<path d="M90.2695 78.093C90.2695 78.093 96.6607 90.1805 97.6766 92.9402C98.6926 95.7 99.0484 98.0022 99.0621 98.2202C99.0834 98.5609 99.5084 98.8876 100.68 98.8876C101.284 98.8876 101.58 98.646 101.725 98.4122C101.849 98.2127 101.855 97.963 101.751 97.7527C101.382 97.0067 100.208 94.6228 99.7738 93.5415C99.2551 92.2506 98.1391 86.4002 97.5271 84.3661C96.9151 82.332 96.2233 80.1255 93.5582 78.093C93.5582 78.093 91.7286 76.3064 90.2695 78.093Z" fill="url(#paint11_linear_498_10012)"/>
<path d="M86.23 58.2871C84.5814 51.3219 88.7578 47.3825 88.7578 47.3825C86.1226 44.8605 81.3212 43.7128 81.3212 43.7128C81.3212 43.7128 76.7396 47.0524 77.2831 49.6665C77.6016 51.1986 80.5035 58.8433 80.5035 58.8433C80.5035 58.8433 83.1868 60.1094 86.23 58.2871Z" fill="white"/>
<path d="M89.8862 61.7354C89.2153 59.7201 86.231 58.2871 86.231 58.2871C83.1878 60.1094 80.5045 58.8433 80.5045 58.8433C80.5045 58.8433 79.9027 61.1366 80.3181 63.2679C80.7334 65.3991 83.3392 79.0962 83.3392 79.0962C87.4451 79.9257 93.7599 78.2616 93.7599 78.2616C91.1446 73.6321 90.5571 63.7506 89.8862 61.7354Z" fill="url(#paint12_linear_498_10012)"/>
<path d="M84.317 39.11L85.6574 45.1128C85.7857 45.6415 85.3023 45.555 84.7661 45.4542C83.8881 45.2892 82.7564 44.9492 82.3781 44.268C82.3396 44.1987 82.3203 44.1203 82.3095 44.0418L81.7336 39.8793C81.688 39.5491 81.867 39.2286 82.1726 39.0934L83.2839 38.6021C83.7117 38.4131 84.2069 38.6565 84.317 39.11Z" fill="url(#paint13_linear_498_10012)"/>
<path d="M82.7464 33.3945C82.7464 33.3945 81.1589 34.0628 80.0795 36.3499C79.0002 38.637 79.8062 39.693 80.8187 39.838C81.8312 39.983 83.3453 39.9609 84.9469 38.4834C86.5485 37.006 84.81 32.6023 82.7464 33.3945Z" fill="url(#paint14_linear_498_10012)"/>
<path d="M83.8698 37.2624C83.8698 37.2624 85.0675 33.9163 82.092 33.8767L81.3919 34.3646C81.3919 34.3646 80.3001 32.5094 82.092 31.6238C83.8839 30.7382 85.9811 31.4697 86.7436 33.8767C87.5061 36.2836 87.6364 37.8949 86.3678 39.0465C85.0991 40.198 84.5763 38.8923 84.5763 38.8923C84.5763 38.8923 85.2671 37.8152 84.9859 37.2389C84.7046 36.6626 84.056 37.3581 84.056 37.3581L83.8698 37.2624Z" fill="url(#paint15_linear_498_10012)"/>
<path d="M84.2031 37.6351C84.2031 37.6351 84.8087 35.9115 85.6165 36.5979C86.4243 37.2844 84.9599 38.1901 84.3867 38.4835L84.2031 37.6351Z" fill="url(#paint16_linear_498_10012)"/>
<path d="M69.5386 30.7808C69.4744 30.9843 70.218 31.2942 70.6558 30.4619C70.6711 30.0629 70.9144 28.3539 70.6753 28.0288C69.402 26.298 66.9332 24.1282 66.9332 24.1282C66.5159 24.5387 66.8597 24.9419 66.8597 24.9419L68.0573 26.1858C67.8068 26.6372 67.5013 27.0182 67.3581 27.5641C67.2496 27.9775 67.3159 28.4193 67.5254 28.7956C67.7356 29.1732 68.0225 29.6641 68.2936 30.0482C68.8068 30.7753 69.5386 30.7808 69.5386 30.7808Z" fill="url(#paint17_linear_498_10012)"/>
<path d="M68.9308 29.9297C68.8408 29.4287 68.5656 28.0603 68.3752 27.7516C68.2428 27.5367 68.1995 27.3576 68.2427 27.2038C68.279 27.0748 68.3726 26.9734 68.5288 26.8939L68.595 26.86L69.7654 27.8493L70.1182 28.795L69.9091 28.8726L69.5766 27.9814L68.5676 27.1286C68.5079 27.169 68.4717 27.2136 68.4575 27.2638C68.4324 27.3533 68.4687 27.4782 68.5653 27.635C68.8166 28.0428 69.137 29.8152 69.1504 29.8905L68.9308 29.9297Z" fill="url(#paint18_linear_498_10012)"/>
<path d="M88.7589 47.3825C88.7589 47.3825 98.114 54.0558 89.9554 61.068C89.9554 61.068 89.6443 61.4189 89.0323 61.6013C88.7234 61.6934 87.8093 62.3828 87.346 62.7423C87.197 62.8579 86.9818 62.8185 86.8816 62.659C86.8031 62.534 86.7939 62.3778 86.8571 62.2445L88.0153 59.8027C88.337 59.5035 88.8292 59.4822 89.1756 59.7526C89.3965 59.9251 89.7202 59.8529 89.8439 59.6017C90.4746 58.321 91.6655 54.5543 86.7912 50.298C86.6079 50.138 86.5616 49.8734 86.674 49.658C87.0165 49.002 87.7997 47.6994 88.7589 47.3825Z" fill="url(#paint19_linear_498_10012)"/>
</g>
<defs>
<linearGradient id="paint0_linear_498_10012" x1="106.756" y1="112.486" x2="33.6945" y2="33.3921" gradientUnits="userSpaceOnUse">
<stop stop-color="#F26CF9"/>
<stop offset="1" stop-color="#EEEFFF"/>
</linearGradient>
<linearGradient id="paint1_linear_498_10012" x1="4.3249" y1="32.663" x2="34.3972" y2="32.2316" gradientUnits="userSpaceOnUse">
<stop offset="0.180068" stop-color="#F26CF9"/>
<stop offset="1" stop-color="#460F48"/>
</linearGradient>
<linearGradient id="paint2_linear_498_10012" x1="4" y1="56" x2="32.0985" y2="60.046" gradientUnits="userSpaceOnUse">
<stop stop-color="#262C4A"/>
<stop offset="1" stop-color="#1E233B"/>
</linearGradient>
<linearGradient id="paint3_linear_498_10012" x1="1.08986" y1="72.4466" x2="33.954" y2="72.4466" gradientUnits="userSpaceOnUse">
<stop offset="0.201406" stop-color="#F26CF9"/>
<stop offset="0.821226" stop-color="#7B1D80"/>
</linearGradient>
<linearGradient id="paint4_linear_498_10012" x1="18.8162" y1="50.3976" x2="86.0737" y2="48.9199" gradientUnits="userSpaceOnUse">
<stop stop-color="#3B4164"/>
<stop offset="1" stop-color="#1E233B"/>
</linearGradient>
<linearGradient id="paint5_linear_498_10012" x1="86.5117" y1="-6.92874" x2="5.73021" y2="120.601" gradientUnits="userSpaceOnUse">
<stop stop-color="#FCD3FE"/>
<stop offset="1" stop-color="#C256C7"/>
</linearGradient>
<linearGradient id="paint6_linear_498_10012" x1="82.737" y1="28.1332" x2="87.1028" y2="39.1172" gradientUnits="userSpaceOnUse">
<stop stop-color="#F26CF9"/>
<stop offset="1" stop-color="#262C4A"/>
</linearGradient>
<linearGradient id="paint7_linear_498_10012" x1="73.6847" y1="34.474" x2="81.7515" y2="52.8824" gradientUnits="userSpaceOnUse">
<stop stop-color="#F9B776"/>
<stop offset="1" stop-color="#F47960"/>
</linearGradient>
<linearGradient id="paint8_linear_498_10012" x1="98.7774" y1="98.397" x2="102.498" y2="98.397" gradientUnits="userSpaceOnUse">
<stop stop-color="#3B4164"/>
<stop offset="1" stop-color="#1E233B"/>
</linearGradient>
<linearGradient id="paint9_linear_498_10012" x1="83.0548" y1="113.027" x2="88.3782" y2="50.6254" gradientUnits="userSpaceOnUse">
<stop stop-color="#F9B776"/>
<stop offset="1" stop-color="#F47960"/>
</linearGradient>
<linearGradient id="paint10_linear_498_10012" x1="81.4922" y1="97.7197" x2="87.5131" y2="97.7197" gradientUnits="userSpaceOnUse">
<stop stop-color="#3B4164"/>
<stop offset="1" stop-color="#1E233B"/>
</linearGradient>
<linearGradient id="paint11_linear_498_10012" x1="93.8274" y1="113.956" x2="99.1522" y2="51.5374" gradientUnits="userSpaceOnUse">
<stop stop-color="#F9B776"/>
<stop offset="1" stop-color="#F47960"/>
</linearGradient>
<linearGradient id="paint12_linear_498_10012" x1="97.9361" y1="51.3174" x2="84.6054" y2="72.71" gradientUnits="userSpaceOnUse">
<stop stop-color="#F26CF9"/>
<stop offset="1" stop-color="#3B4164"/>
</linearGradient>
<linearGradient id="paint13_linear_498_10012" x1="82.8852" y1="27.6258" x2="84.1642" y2="51.0837" gradientUnits="userSpaceOnUse">
<stop stop-color="#F9B776"/>
<stop offset="1" stop-color="#F47960"/>
</linearGradient>
<linearGradient id="paint14_linear_498_10012" x1="79.9302" y1="42.0606" x2="88.6671" y2="26.4657" gradientUnits="userSpaceOnUse">
<stop stop-color="#F9B776"/>
<stop offset="1" stop-color="#FCD3FE"/>
</linearGradient>
<linearGradient id="paint15_linear_498_10012" x1="81.817" y1="28.4992" x2="86.1828" y2="39.4832" gradientUnits="userSpaceOnUse">
<stop stop-color="#F26CF9"/>
<stop offset="1" stop-color="#1E233B"/>
</linearGradient>
<linearGradient id="paint16_linear_498_10012" x1="81.7975" y1="43.1073" x2="90.5343" y2="27.5123" gradientUnits="userSpaceOnUse">
<stop stop-color="#F9B776"/>
<stop offset="1" stop-color="#F47960"/>
</linearGradient>
<linearGradient id="paint17_linear_498_10012" x1="72.0811" y1="35.176" x2="80.1479" y2="53.5844" gradientUnits="userSpaceOnUse">
<stop stop-color="#F9B776"/>
<stop offset="1" stop-color="#F47960"/>
</linearGradient>
<linearGradient id="paint18_linear_498_10012" x1="76.3286" y1="13.3363" x2="63.3409" y2="40.1228" gradientUnits="userSpaceOnUse">
<stop stop-color="#F9B776"/>
<stop offset="0.5821" stop-color="#F69369"/>
<stop offset="1" stop-color="#F47960"/>
</linearGradient>
<linearGradient id="paint19_linear_498_10012" x1="86.6133" y1="55.0957" x2="93.2953" y2="55.0957" gradientUnits="userSpaceOnUse">
<stop stop-color="#F9B776"/>
<stop offset="1" stop-color="#F47960"/>
</linearGradient>
<clipPath id="clip0_498_10012">
<rect width="102" height="100" fill="white" transform="translate(0.5)"/>
</clipPath>
</defs>
</svg>
