<svg width="191" height="276" viewBox="0 0 191 276" fill="none" xmlns="http://www.w3.org/2000/svg">
<rect width="191" height="276" rx="12" fill="white"/>
<g clip-path="url(#clip0_468_9298)">
<path opacity="0.3" d="M140.541 91.5367C130.47 115.008 103.885 125.089 83.0551 123.37C77.3677 122.901 65.9246 121.956 56.9897 113.532C39.8308 97.3533 42.4734 63.5357 58.8994 43.6258C61.0147 41.0618 75.6567 23.8833 98.4734 24.1132C115.179 24.2816 126.904 33.6902 128.33 34.8623C130.131 36.343 134.103 39.8617 137.683 45.4438C146.095 58.5598 146.835 76.8698 140.541 91.5367Z" fill="url(#paint0_linear_468_9298)"/>
<path d="M71.9536 86.1863C71.9536 86.1863 72.261 73.3024 66.3091 69.854C60.3573 66.4057 49.0408 64.2498 48.6166 45.7498C48.3682 34.9191 48.0995 30.1836 47.9193 28.1188C47.8491 27.3134 48.5669 26.6632 49.3638 26.8129C55.0007 27.8716 73.3125 32.2295 77.1517 44.6911C81.703 59.4644 71.9536 86.1863 71.9536 86.1863Z" fill="url(#paint1_linear_468_9298)"/>
<path d="M53.7232 31.9602C59.9108 37.4623 67.0656 47.1999 70.8792 56.9376C71.3687 58.5424 72.8006 61.9552 73.4224 68.0189C73.9778 73.0761 73.7017 78.42 73.0283 81.9575C72.9857 82.1811 72.7693 82.328 72.545 82.2855C72.1593 82.2126 72.2106 81.799 72.2141 81.8121C72.9832 75.7683 72.664 68.2458 70.9017 61.4583C68.6502 53.1241 63.6285 45.0437 58.4344 38.1904L57.8999 37.5156C53.8758 32.3629 53.0286 32.325 53.4048 31.9658C53.4937 31.881 53.6328 31.8802 53.7232 31.9602Z" fill="#37437D"/>
<path d="M81.5184 110.957C82.3236 111.351 73.895 100.783 71.2547 84.186C70.0105 76.3649 69.9943 66.5657 65.5258 62.7895C61.8068 59.6466 49.1517 61.6308 45.0109 62.3849C44.4935 62.4791 44.3193 63.1307 44.722 63.468C46.7078 65.1307 50.9556 69.0527 52.0624 73.0053C53.5213 78.2151 58.4891 81.5289 62.9366 82.4257C67.384 83.3225 69.8581 84.1928 72.0248 91.2842C74.1914 98.3756 79.2303 109.839 81.5184 110.957Z" fill="url(#paint2_linear_468_9298)"/>
<path d="M50.8347 64.5861C56.1177 64.8067 61.7885 67.2095 64.6663 71.7166L64.938 72.1467C65.5653 73.1551 69.1207 80.3241 71.0953 86.2668C71.1199 86.3408 71.0797 86.4208 71.0054 86.4453C70.8792 86.487 70.8159 86.3485 70.828 86.3608C69.4522 83.0036 67.4762 78.7473 65.9025 75.5643C64.2148 72.0911 63.0337 69.7389 59.1842 67.4859C54.8995 65.0595 50.8062 64.8097 50.8184 64.8122C50.7559 64.8059 50.7105 64.7502 50.7169 64.6879C50.7229 64.6279 50.7751 64.5837 50.8347 64.5861Z" fill="#EEEFFF"/>
<path d="M77.9051 112.347C78.383 112.599 75.2134 107.159 74.9702 102.367C74.727 97.5752 73.6427 89.3961 69.4979 84.5034C65.3532 79.6108 60.8142 79.1644 55.0949 83.6123C50.3289 87.3188 47.3559 89.1894 45.6124 89.5371C45.1807 89.6232 44.9604 90.1091 45.1704 90.4949C46.2887 92.5481 49.4503 97.2644 54.7588 96.9324C61.5302 96.5089 69.7366 92.12 72.2378 95.7812C74.739 99.4424 74.4178 101.491 74.4946 103.226C74.5715 104.961 74.7428 110.685 77.9051 112.347Z" fill="url(#paint3_linear_468_9298)"/>
<path d="M57.0163 89.487C59.0908 87.5042 62.4692 85.5557 65.4218 85.9191C69.2634 86.536 71.8225 89.0938 73.2184 92.9013C73.7641 94.5179 73.9886 95.3809 74.3112 97.3626C74.337 97.5208 74.1028 97.5681 74.0639 97.4136C73.8291 96.4828 73.5966 95.5082 73.2487 94.5001C71.2239 87.9967 66.9015 87.1207 66.7333 86.9876C66.4066 87.0198 64.4255 85.5412 59.7249 88.0631C58.8471 88.5394 57.9927 89.0832 57.1905 89.683L57.186 89.6863C57.128 89.7297 57.0457 89.718 57.0021 89.6601C56.9619 89.6065 56.969 89.5322 57.0163 89.487Z" fill="#37437D"/>
<path d="M67.6737 24.3929C65.0655 24.6191 63.0657 26.797 63.0583 29.4073C63.0129 45.3707 62.9379 100.432 63.9815 119.921C64.0921 121.986 65.7898 123.608 67.8634 123.63C78.1196 123.74 107.621 123.942 124.37 122.874C127.858 122.652 130.573 119.771 130.568 116.286C130.548 99.532 130.279 52.4137 127.978 30.8766C127.702 28.2961 125.621 26.2819 123.026 26.0803C111.84 25.2113 82.1358 23.1389 67.6737 24.3929Z" fill="url(#paint4_linear_468_9298)"/>
<path d="M67.1753 33.5908C66.9738 47.246 66.4004 92.6712 67.4014 109.437C67.5477 111.887 69.4569 113.822 71.8143 113.904C81.5204 114.241 106.41 114.894 120.593 113.338C123.146 113.058 125.098 110.851 125.166 108.178C125.521 94.2432 126.479 51.9349 125.506 35.3567C125.351 32.7121 123.325 30.6018 120.784 30.4311C110.275 29.7251 83.2881 28.0968 71.2277 29.0982C68.9637 29.2861 67.2101 31.2267 67.1753 33.5908Z" fill="url(#paint5_linear_468_9298)"/>
<path d="M90.6263 26.7671C90.6346 27.1444 90.9363 27.4491 91.3146 27.4606C93.1822 27.5171 98.4434 27.6777 100.795 27.7622C101.259 27.7789 101.613 27.3559 101.515 26.9037C101.507 26.8894 101.447 26.3096 100.853 26.2685C99.2622 26.1582 94.4632 25.8609 91.2918 26.0433C90.6406 26.0808 90.6052 26.8192 90.6263 26.7671Z" fill="#EEEFFF"/>
<path opacity="0.5" d="M94.006 111.322H71.3971C70.9768 111.322 70.6361 110.982 70.6361 110.563V96.4693C70.6361 96.09 70.9445 95.7825 71.325 95.7825H93.9677C94.2848 95.7825 94.542 96.0388 94.542 96.3551V110.787C94.542 111.082 94.302 111.322 94.006 111.322Z" fill="white"/>
<path opacity="0.5" d="M120.956 110.928H98.3755C98.0223 110.928 97.736 110.643 97.736 110.291V96.0547C97.736 95.6871 98.0349 95.3892 98.4036 95.3892H121.001C121.355 95.3892 121.642 95.6751 121.642 96.0279V110.244C121.642 110.622 121.335 110.928 120.956 110.928Z" fill="white"/>
<path opacity="0.5" d="M94.7487 93.4905H72.1399C71.7196 93.4905 71.3789 93.1508 71.3789 92.7317V78.638C71.3789 78.2587 71.6873 77.9512 72.0678 77.9512H94.7104C95.0276 77.9512 95.2848 78.2075 95.2848 78.5238V92.9561C95.2848 93.2512 95.0448 93.4905 94.7487 93.4905Z" fill="white"/>
<path opacity="0.5" d="M121.496 93.3163H98.9162C98.563 93.3163 98.2768 93.0308 98.2768 92.6787V78.4425C98.2768 78.0749 98.5756 77.777 98.9443 77.777H121.542C121.896 77.777 122.183 78.063 122.183 78.4157V92.6321C122.183 93.01 121.875 93.3163 121.496 93.3163Z" fill="white"/>
<path opacity="0.5" d="M78.6943 74.4722C82.4756 74.4722 85.5409 71.4159 85.5409 67.6458C85.5409 63.8757 82.4756 60.8195 78.6943 60.8195C74.913 60.8195 71.8477 63.8757 71.8477 67.6458C71.8477 71.4159 74.913 74.4722 78.6943 74.4722Z" fill="white"/>
<path opacity="0.5" d="M97.0507 75.0311C100.832 75.0311 103.897 71.9749 103.897 68.2048C103.897 64.4347 100.832 61.3784 97.0507 61.3784C93.2694 61.3784 90.2041 64.4347 90.2041 68.2048C90.2041 71.9749 93.2694 75.0311 97.0507 75.0311Z" fill="white"/>
<path opacity="0.5" d="M115.467 75.1219C119.248 75.1219 122.313 72.0657 122.313 68.2956C122.313 64.5255 119.248 61.4692 115.467 61.4692C111.685 61.4692 108.62 64.5255 108.62 68.2956C108.62 72.0657 111.685 75.1219 115.467 75.1219Z" fill="white"/>
<path opacity="0.5" d="M123.231 53.0915C123.27 54.6352 122.02 55.9046 120.471 55.8955L73.949 55.6231C72.2744 55.6061 70.9429 54.2169 71.0019 52.5482L71.0004 36.044C71.0002 33.7556 72.903 31.9231 75.1967 32.0025L120.385 33.567C121.775 33.6158 122.863 34.7789 122.814 36.1648L123.231 53.0915Z" fill="white"/>
<path opacity="0.5" d="M115.313 52.1859C117.336 50.1691 117.336 46.8993 115.313 44.8825C113.29 42.8657 110.011 42.8657 107.988 44.8825C105.965 46.8992 105.965 50.1691 107.988 52.1859C110.011 54.2027 113.29 54.2027 115.313 52.1859Z" fill="white"/>
<path d="M111.774 51.6699C113.443 51.6699 114.797 50.3205 114.797 48.6561C114.797 46.9916 113.443 45.6423 111.774 45.6423C110.105 45.6423 108.751 46.9916 108.751 48.6561C108.751 50.3205 110.105 51.6699 111.774 51.6699Z" fill="white"/>
<path d="M129.34 58.0369C129.34 58.0369 130.819 58.7544 131.091 59.5786C131.309 60.2398 132.945 60.3251 133.107 61.6257C133.19 62.2971 133.688 62.8349 134.359 62.9374C136.03 63.1927 138.605 64.0577 139.017 66.9498C139.331 69.1573 138.202 69.9944 137.018 70.2841C136.148 70.4969 135.57 71.3406 135.746 72.2164C135.914 73.0564 135.663 74.0274 134.203 74.7953C130.932 76.516 127.666 70.7187 127.666 70.7187L126.997 60.5964L129.34 58.0369Z" fill="url(#paint6_linear_468_9298)"/>
<path d="M113.944 52.6988C113.944 52.6988 118.152 64.1377 125.323 67.7128C125.323 67.7128 122.936 71.5956 121.691 71.8311C121.691 71.8311 114.03 62.0555 113.249 54.0466L113.944 52.6988Z" fill="url(#paint7_linear_468_9298)"/>
<path d="M142.783 121.507L142.995 123.242C143.035 123.571 143.295 123.831 143.625 123.869C144.183 123.932 145.078 123.998 145.954 123.905C146.338 123.865 146.588 123.477 146.471 123.109C146.257 122.44 145.867 121.434 145.304 120.843H143.374C143.017 120.843 142.74 121.154 142.783 121.507Z" fill="url(#paint8_linear_468_9298)"/>
<path d="M127.666 101.186L127.34 103.096C127.34 103.096 128.431 114.114 128.625 118.521C128.656 119.212 128.476 119.895 128.113 120.484L126.216 123.555L131.037 120.719L131.133 120.132L130.344 119.05L131.377 106.708C131.438 105.983 131.288 105.255 130.945 104.613L129.948 102.745L127.666 101.186Z" fill="url(#paint9_linear_468_9298)"/>
<path d="M125.898 124H127.437C127.725 124 127.996 123.868 128.172 123.641C128.652 123.019 129.645 121.807 130.12 121.775C130.76 121.733 130.678 124 130.678 124H131.037L131.491 121.183C131.605 120.474 131.252 119.771 130.613 119.439C130.613 119.439 130.467 120.518 129.674 120.994C128.881 121.471 126.448 123.179 126.448 123.179C126.448 123.179 126.15 123.137 125.822 123.196C125.337 123.283 125.405 124 125.898 124Z" fill="url(#paint10_linear_468_9298)"/>
<path d="M134.269 102.093C134.269 102.093 140.661 114.18 141.676 116.94C142.692 119.7 143.048 122.002 143.062 122.22C143.083 122.561 143.508 122.888 144.68 122.888C145.284 122.888 145.58 122.646 145.725 122.412C145.849 122.213 145.855 121.963 145.751 121.753C145.381 121.007 144.208 118.623 143.774 117.542C143.255 116.251 142.139 110.4 141.527 108.366C140.915 106.332 140.223 104.125 137.558 102.093C137.558 102.093 135.729 100.306 134.269 102.093Z" fill="url(#paint11_linear_468_9298)"/>
<path d="M130.232 82.2871C128.583 75.3219 132.76 71.3825 132.76 71.3825C130.125 68.8605 125.323 67.7128 125.323 67.7128C125.323 67.7128 120.742 71.0524 121.285 73.6665C121.604 75.1986 124.506 82.8433 124.506 82.8433C124.506 82.8433 127.189 84.1094 130.232 82.2871Z" fill="white"/>
<path d="M133.887 85.7354C133.216 83.7201 130.232 82.2871 130.232 82.2871C127.189 84.1094 124.506 82.8433 124.506 82.8433C124.506 82.8433 123.904 85.1366 124.319 87.2679C124.734 89.3991 127.34 103.096 127.34 103.096C131.446 103.926 137.761 102.262 137.761 102.262C135.146 97.6321 134.558 87.7506 133.887 85.7354Z" fill="url(#paint12_linear_468_9298)"/>
<path d="M128.318 63.11L129.659 69.1128C129.787 69.6415 129.304 69.555 128.767 69.4542C127.889 69.2892 126.758 68.9492 126.379 68.268C126.341 68.1987 126.322 68.1203 126.311 68.0418L125.735 63.8793C125.689 63.5491 125.868 63.2286 126.174 63.0934L127.285 62.6021C127.713 62.4131 128.208 62.6565 128.318 63.11Z" fill="url(#paint13_linear_468_9298)"/>
<path d="M126.746 57.3945C126.746 57.3945 125.158 58.0628 124.079 60.3499C123 62.637 123.806 63.693 124.818 63.838C125.831 63.983 127.345 63.9609 128.946 62.4834C130.548 61.006 128.809 56.6023 126.746 57.3945Z" fill="url(#paint14_linear_468_9298)"/>
<path d="M127.87 61.2624C127.87 61.2624 129.067 57.9163 126.092 57.8767L125.392 58.3646C125.392 58.3646 124.3 56.5094 126.092 55.6238C127.884 54.7382 129.981 55.4697 130.743 57.8767C131.506 60.2836 131.636 61.8949 130.368 63.0465C129.099 64.198 128.576 62.8923 128.576 62.8923C128.576 62.8923 129.267 61.8152 128.986 61.2389C128.704 60.6626 128.056 61.3581 128.056 61.3581L127.87 61.2624Z" fill="url(#paint15_linear_468_9298)"/>
<path d="M128.203 61.6351C128.203 61.6351 128.809 59.9115 129.617 60.5979C130.425 61.2844 128.96 62.1901 128.387 62.4835L128.203 61.6351Z" fill="url(#paint16_linear_468_9298)"/>
<path d="M113.54 54.7808C113.475 54.9843 114.219 55.2942 114.657 54.4619C114.672 54.0629 114.915 52.3539 114.676 52.0288C113.403 50.298 110.934 48.1282 110.934 48.1282C110.517 48.5387 110.861 48.9419 110.861 48.9419L112.058 50.1858C111.808 50.6372 111.502 51.0182 111.359 51.5641C111.251 51.9775 111.317 52.4193 111.526 52.7956C111.737 53.1732 112.023 53.6641 112.295 54.0482C112.808 54.7753 113.54 54.7808 113.54 54.7808Z" fill="url(#paint17_linear_468_9298)"/>
<path d="M112.933 53.9297C112.843 53.4287 112.568 52.0603 112.378 51.7516C112.245 51.5367 112.202 51.3576 112.245 51.2038C112.281 51.0748 112.375 50.9734 112.531 50.8939L112.597 50.86L113.768 51.8493L114.121 52.795L113.912 52.8726L113.579 51.9814L112.57 51.1286C112.51 51.169 112.474 51.2136 112.46 51.2638C112.435 51.3533 112.471 51.4782 112.568 51.635C112.819 52.0428 113.139 53.8152 113.153 53.8905L112.933 53.9297Z" fill="url(#paint18_linear_468_9298)"/>
<path d="M132.76 71.3825C132.76 71.3825 142.115 78.0558 133.956 85.068C133.956 85.068 133.645 85.4189 133.033 85.6013C132.724 85.6934 131.81 86.3828 131.347 86.7423C131.198 86.8579 130.983 86.8185 130.883 86.659C130.804 86.534 130.795 86.3778 130.858 86.2445L132.016 83.8027C132.338 83.5035 132.83 83.4822 133.176 83.7526C133.397 83.9251 133.721 83.8529 133.845 83.6017C134.476 82.321 135.666 78.5543 130.792 74.298C130.609 74.138 130.562 73.8734 130.675 73.658C131.017 73.002 131.801 71.6994 132.76 71.3825Z" fill="url(#paint19_linear_468_9298)"/>
</g>
<path d="M34.4959 154V145.273H39.9675V146.406H35.8127V149.065H39.682V150.195H35.8127V152.866H40.0186V154H34.4959ZM42.6298 147.455L44.0744 150.003L45.5318 147.455H46.9252L44.8841 150.727L46.9423 154H45.5488L44.0744 151.554L42.6042 154H41.2065L43.2434 150.727L41.2321 147.455H42.6298ZM48.2335 156.455V147.455H49.4778V148.516H49.5843C49.6582 148.379 49.7647 148.222 49.9039 148.043C50.0431 147.864 50.2363 147.707 50.4835 147.574C50.7306 147.438 51.0574 147.369 51.4636 147.369C51.992 147.369 52.4636 147.503 52.8784 147.77C53.2931 148.037 53.6184 148.422 53.8542 148.925C54.0929 149.428 54.2122 150.033 54.2122 150.74C54.2122 151.447 54.0943 152.054 53.8585 152.56C53.6227 153.062 53.2988 153.45 52.8869 153.723C52.475 153.993 52.0048 154.128 51.4764 154.128C51.0787 154.128 50.7534 154.061 50.5005 153.928C50.2505 153.794 50.0545 153.638 49.9125 153.459C49.7704 153.28 49.661 153.121 49.5843 152.982H49.5076V156.455H48.2335ZM49.4821 150.727C49.4821 151.187 49.5488 151.591 49.6824 151.938C49.8159 152.284 50.0091 152.555 50.2619 152.751C50.5147 152.945 50.8244 153.041 51.1909 153.041C51.5716 153.041 51.8897 152.94 52.1454 152.739C52.4011 152.534 52.5943 152.257 52.725 151.908C52.8585 151.558 52.9252 151.165 52.9252 150.727C52.9252 150.295 52.8599 149.908 52.7292 149.564C52.6014 149.22 52.4082 148.949 52.1497 148.75C51.894 148.551 51.5744 148.452 51.1909 148.452C50.8216 148.452 50.5091 148.547 50.2534 148.737C50.0005 148.928 49.8088 149.193 49.6781 149.534C49.5474 149.875 49.4821 150.273 49.4821 150.727ZM58.4608 154.132C57.8159 154.132 57.2605 153.994 56.7946 153.719C56.3315 153.44 55.9735 153.05 55.7207 152.547C55.4707 152.041 55.3457 151.449 55.3457 150.77C55.3457 150.099 55.4707 149.509 55.7207 148.997C55.9735 148.486 56.3258 148.087 56.7775 147.8C57.2321 147.513 57.7633 147.369 58.3713 147.369C58.7406 147.369 59.0985 147.43 59.4451 147.553C59.7917 147.675 60.1028 147.866 60.3784 148.128C60.6539 148.389 60.8713 148.729 61.0304 149.146C61.1895 149.561 61.269 150.065 61.269 150.659V151.111H56.0659V150.156H60.0204C60.0204 149.821 59.9522 149.524 59.8159 149.266C59.6795 149.004 59.4877 148.798 59.2406 148.648C58.9963 148.497 58.7093 148.422 58.3798 148.422C58.0218 148.422 57.7093 148.51 57.4423 148.686C57.1781 148.859 56.9735 149.087 56.8287 149.368C56.6866 149.646 56.6156 149.949 56.6156 150.276V151.021C56.6156 151.459 56.6923 151.831 56.8457 152.138C57.002 152.445 57.2193 152.679 57.4977 152.841C57.7761 153 58.1014 153.08 58.4735 153.08C58.715 153.08 58.9352 153.045 59.1341 152.977C59.3329 152.906 59.5048 152.801 59.6497 152.662C59.7946 152.523 59.9054 152.351 59.9821 152.146L61.188 152.364C61.0914 152.719 60.9181 153.03 60.6681 153.297C60.421 153.561 60.1099 153.767 59.7349 153.915C59.3627 154.06 58.938 154.132 58.4608 154.132ZM62.6827 154V147.455H63.9142V148.494H63.9824C64.1017 148.142 64.312 147.865 64.6131 147.663C64.9171 147.459 65.2608 147.357 65.6444 147.357C65.7239 147.357 65.8176 147.359 65.9256 147.365C66.0364 147.371 66.123 147.378 66.1855 147.386V148.605C66.1344 148.591 66.0435 148.575 65.9128 148.558C65.7821 148.538 65.6515 148.528 65.5208 148.528C65.2196 148.528 64.9512 148.592 64.7154 148.72C64.4824 148.845 64.2978 149.02 64.1614 149.244C64.025 149.466 63.9569 149.719 63.9569 150.003V154H62.6827ZM67.2882 154V147.455H68.5623V154H67.2882ZM67.9316 146.445C67.71 146.445 67.5197 146.371 67.3606 146.223C67.2044 146.072 67.1262 145.893 67.1262 145.686C67.1262 145.476 67.2044 145.297 67.3606 145.149C67.5197 144.999 67.71 144.923 67.9316 144.923C68.1532 144.923 68.3422 144.999 68.4984 145.149C68.6575 145.297 68.737 145.476 68.737 145.686C68.737 145.893 68.6575 146.072 68.4984 146.223C68.3422 146.371 68.1532 146.445 67.9316 146.445ZM73.0975 154.132C72.4526 154.132 71.8972 153.994 71.4313 153.719C70.9682 153.44 70.6103 153.05 70.3574 152.547C70.1074 152.041 69.9824 151.449 69.9824 150.77C69.9824 150.099 70.1074 149.509 70.3574 148.997C70.6103 148.486 70.9625 148.087 71.4142 147.8C71.8688 147.513 72.4 147.369 73.008 147.369C73.3773 147.369 73.7353 147.43 74.0819 147.553C74.4284 147.675 74.7395 147.866 75.0151 148.128C75.2907 148.389 75.508 148.729 75.6671 149.146C75.8262 149.561 75.9057 150.065 75.9057 150.659V151.111H70.7026V150.156H74.6571C74.6571 149.821 74.589 149.524 74.4526 149.266C74.3162 149.004 74.1245 148.798 73.8773 148.648C73.633 148.497 73.3461 148.422 73.0165 148.422C72.6586 148.422 72.3461 148.51 72.079 148.686C71.8148 148.859 71.6103 149.087 71.4654 149.368C71.3233 149.646 71.2523 149.949 71.2523 150.276V151.021C71.2523 151.459 71.329 151.831 71.4824 152.138C71.6387 152.445 71.856 152.679 72.1344 152.841C72.4128 153 72.7381 153.08 73.1103 153.08C73.3517 153.08 73.5719 153.045 73.7708 152.977C73.9696 152.906 74.1415 152.801 74.2864 152.662C74.4313 152.523 74.5421 152.351 74.6188 152.146L75.8248 152.364C75.7282 152.719 75.5549 153.03 75.3049 153.297C75.0577 153.561 74.7466 153.767 74.3716 153.915C73.9995 154.06 73.5748 154.132 73.0975 154.132ZM78.5936 150.114V154H77.3194V147.455H78.5424V148.52H78.6234C78.774 148.173 79.0098 147.895 79.3308 147.685C79.6547 147.474 80.0623 147.369 80.5538 147.369C80.9998 147.369 81.3904 147.463 81.7257 147.651C82.0609 147.835 82.3208 148.111 82.5055 148.477C82.6902 148.844 82.7825 149.297 82.7825 149.837V154H81.5083V149.99C81.5083 149.516 81.3848 149.145 81.1376 148.878C80.8904 148.608 80.551 148.473 80.1191 148.473C79.8237 148.473 79.5609 148.537 79.3308 148.665C79.1035 148.793 78.9231 148.98 78.7896 149.227C78.6589 149.472 78.5936 149.767 78.5936 150.114ZM87.2484 154.132C86.6149 154.132 86.0694 153.989 85.612 153.702C85.1575 153.412 84.8081 153.013 84.5637 152.504C84.3194 151.996 84.1973 151.413 84.1973 150.757C84.1973 150.092 84.3223 149.506 84.5723 148.997C84.8223 148.486 85.1745 148.087 85.6291 147.8C86.0836 147.513 86.6191 147.369 87.2356 147.369C87.7328 147.369 88.176 147.462 88.5652 147.646C88.9544 147.828 89.2683 148.084 89.5069 148.413C89.7484 148.743 89.8919 149.128 89.9373 149.568H88.6973C88.6291 149.261 88.4728 148.997 88.2285 148.776C87.987 148.554 87.6632 148.443 87.2569 148.443C86.9018 148.443 86.5907 148.537 86.3237 148.724C86.0595 148.909 85.8535 149.173 85.7058 149.517C85.5581 149.858 85.4842 150.261 85.4842 150.727C85.4842 151.205 85.5566 151.616 85.7015 151.963C85.8464 152.31 86.051 152.578 86.3152 152.768C86.5822 152.959 86.8961 153.054 87.2569 153.054C87.4984 153.054 87.7172 153.01 87.9132 152.922C88.112 152.831 88.2782 152.702 88.4118 152.534C88.5481 152.366 88.6433 152.165 88.6973 151.929H89.9373C89.8919 152.352 89.7541 152.73 89.524 153.062C89.2939 153.395 88.9856 153.656 88.5993 153.847C88.2157 154.037 87.7654 154.132 87.2484 154.132ZM94.1209 154.132C93.476 154.132 92.9206 153.994 92.4547 153.719C91.9917 153.44 91.6337 153.05 91.3809 152.547C91.1309 152.041 91.0059 151.449 91.0059 150.77C91.0059 150.099 91.1309 149.509 91.3809 148.997C91.6337 148.486 91.986 148.087 92.4377 147.8C92.8922 147.513 93.4235 147.369 94.0314 147.369C94.4007 147.369 94.7587 147.43 95.1053 147.553C95.4519 147.675 95.763 147.866 96.0385 148.128C96.3141 148.389 96.5314 148.729 96.6905 149.146C96.8496 149.561 96.9292 150.065 96.9292 150.659V151.111H91.726V150.156H95.6806C95.6806 149.821 95.6124 149.524 95.476 149.266C95.3397 149.004 95.1479 148.798 94.9007 148.648C94.6564 148.497 94.3695 148.422 94.04 148.422C93.682 148.422 93.3695 148.51 93.1025 148.686C92.8382 148.859 92.6337 149.087 92.4888 149.368C92.3468 149.646 92.2757 149.949 92.2757 150.276V151.021C92.2757 151.459 92.3525 151.831 92.5059 152.138C92.6621 152.445 92.8794 152.679 93.1578 152.841C93.4363 153 93.7615 153.08 94.1337 153.08C94.3752 153.08 94.5953 153.045 94.7942 152.977C94.9931 152.906 95.165 152.801 95.3098 152.662C95.4547 152.523 95.5655 152.351 95.6422 152.146L96.8482 152.364C96.7516 152.719 96.5783 153.03 96.3283 153.297C96.0811 153.561 95.7701 153.767 95.3951 153.915C95.0229 154.06 94.5982 154.132 94.1209 154.132ZM104.34 154.132C103.695 154.132 103.139 153.994 102.673 153.719C102.21 153.44 101.852 153.05 101.6 152.547C101.35 152.041 101.225 151.449 101.225 150.77C101.225 150.099 101.35 149.509 101.6 148.997C101.852 148.486 102.205 148.087 102.656 147.8C103.111 147.513 103.642 147.369 104.25 147.369C104.619 147.369 104.977 147.43 105.324 147.553C105.671 147.675 105.982 147.866 106.257 148.128C106.533 148.389 106.75 148.729 106.909 149.146C107.068 149.561 107.148 150.065 107.148 150.659V151.111H101.945V150.156H105.899C105.899 149.821 105.831 149.524 105.695 149.266C105.558 149.004 105.367 148.798 105.119 148.648C104.875 148.497 104.588 148.422 104.259 148.422C103.901 148.422 103.588 148.51 103.321 148.686C103.057 148.859 102.852 149.087 102.708 149.368C102.566 149.646 102.494 149.949 102.494 150.276V151.021C102.494 151.459 102.571 151.831 102.725 152.138C102.881 152.445 103.098 152.679 103.377 152.841C103.655 153 103.98 153.08 104.352 153.08C104.594 153.08 104.814 153.045 105.013 152.977C105.212 152.906 105.384 152.801 105.529 152.662C105.673 152.523 105.784 152.351 105.861 152.146L107.067 152.364C106.97 152.719 106.797 153.03 106.547 153.297C106.3 153.561 105.989 153.767 105.614 153.915C105.242 154.06 104.817 154.132 104.34 154.132ZM109.836 150.114V154H108.562V147.455H109.785V148.52H109.866C110.016 148.173 110.252 147.895 110.573 147.685C110.897 147.474 111.305 147.369 111.796 147.369C112.242 147.369 112.633 147.463 112.968 147.651C113.303 147.835 113.563 148.111 113.748 148.477C113.932 148.844 114.025 149.297 114.025 149.837V154H112.751V149.99C112.751 149.516 112.627 149.145 112.38 148.878C112.133 148.608 111.793 148.473 111.361 148.473C111.066 148.473 110.803 148.537 110.573 148.665C110.346 148.793 110.165 148.98 110.032 149.227C109.901 149.472 109.836 149.767 109.836 150.114ZM117.008 150.114V154H115.733V145.273H116.991V148.52H117.072C117.225 148.168 117.459 147.888 117.775 147.68C118.09 147.473 118.502 147.369 119.01 147.369C119.459 147.369 119.851 147.462 120.187 147.646C120.525 147.831 120.786 148.107 120.971 148.473C121.158 148.837 121.252 149.291 121.252 149.837V154H119.978V149.99C119.978 149.51 119.854 149.138 119.607 148.874C119.36 148.607 119.016 148.473 118.576 148.473C118.275 148.473 118.005 148.537 117.766 148.665C117.53 148.793 117.344 148.98 117.208 149.227C117.074 149.472 117.008 149.767 117.008 150.114ZM124.857 154.145C124.442 154.145 124.067 154.068 123.732 153.915C123.397 153.759 123.131 153.533 122.935 153.237C122.742 152.942 122.645 152.58 122.645 152.151C122.645 151.781 122.716 151.477 122.858 151.239C123.001 151 123.192 150.811 123.434 150.672C123.675 150.533 123.945 150.428 124.243 150.357C124.542 150.286 124.846 150.232 125.155 150.195C125.547 150.149 125.866 150.112 126.11 150.084C126.354 150.053 126.532 150.003 126.643 149.935C126.753 149.866 126.809 149.756 126.809 149.602V149.572C126.809 149.2 126.704 148.912 126.493 148.707C126.286 148.503 125.976 148.401 125.564 148.401C125.135 148.401 124.797 148.496 124.55 148.686C124.306 148.874 124.137 149.082 124.043 149.312L122.846 149.04C122.988 148.642 123.195 148.321 123.468 148.077C123.743 147.83 124.06 147.651 124.418 147.54C124.776 147.426 125.153 147.369 125.547 147.369C125.809 147.369 126.086 147.401 126.378 147.463C126.674 147.523 126.949 147.634 127.205 147.795C127.464 147.957 127.675 148.189 127.84 148.49C128.005 148.788 128.087 149.176 128.087 149.653V154H126.843V153.105H126.792C126.709 153.27 126.586 153.432 126.421 153.591C126.256 153.75 126.045 153.882 125.786 153.987C125.528 154.092 125.218 154.145 124.857 154.145ZM125.134 153.122C125.486 153.122 125.787 153.053 126.037 152.913C126.29 152.774 126.482 152.592 126.613 152.368C126.746 152.141 126.813 151.898 126.813 151.639V150.795C126.768 150.841 126.68 150.884 126.549 150.923C126.421 150.96 126.275 150.993 126.11 151.021C125.945 151.047 125.785 151.071 125.628 151.094C125.472 151.114 125.341 151.131 125.236 151.145C124.989 151.176 124.763 151.229 124.559 151.303C124.357 151.376 124.195 151.483 124.073 151.622C123.954 151.759 123.894 151.94 123.894 152.168C123.894 152.483 124.01 152.722 124.243 152.884C124.476 153.043 124.773 153.122 125.134 153.122ZM131.058 150.114V154H129.784V147.455H131.007V148.52H131.088C131.239 148.173 131.475 147.895 131.796 147.685C132.119 147.474 132.527 147.369 133.019 147.369C133.465 147.369 133.855 147.463 134.191 147.651C134.526 147.835 134.786 148.111 134.97 148.477C135.155 148.844 135.247 149.297 135.247 149.837V154H133.973V149.99C133.973 149.516 133.85 149.145 133.602 148.878C133.355 148.608 133.016 148.473 132.584 148.473C132.289 148.473 132.026 148.537 131.796 148.665C131.568 148.793 131.388 148.98 131.254 149.227C131.124 149.472 131.058 149.767 131.058 150.114ZM139.713 154.132C139.08 154.132 138.534 153.989 138.077 153.702C137.622 153.412 137.273 153.013 137.029 152.504C136.784 151.996 136.662 151.413 136.662 150.757C136.662 150.092 136.787 149.506 137.037 148.997C137.287 148.486 137.639 148.087 138.094 147.8C138.548 147.513 139.084 147.369 139.7 147.369C140.198 147.369 140.641 147.462 141.03 147.646C141.419 147.828 141.733 148.084 141.972 148.413C142.213 148.743 142.357 149.128 142.402 149.568H141.162C141.094 149.261 140.938 148.997 140.693 148.776C140.452 148.554 140.128 148.443 139.722 148.443C139.367 148.443 139.056 148.537 138.789 148.724C138.524 148.909 138.318 149.173 138.171 149.517C138.023 149.858 137.949 150.261 137.949 150.727C137.949 151.205 138.021 151.616 138.166 151.963C138.311 152.31 138.516 152.578 138.78 152.768C139.047 152.959 139.361 153.054 139.722 153.054C139.963 153.054 140.182 153.01 140.378 152.922C140.577 152.831 140.743 152.702 140.877 152.534C141.013 152.366 141.108 152.165 141.162 151.929H142.402C142.357 152.352 142.219 152.73 141.989 153.062C141.759 153.395 141.45 153.656 141.064 153.847C140.681 154.037 140.23 154.132 139.713 154.132ZM146.586 154.132C145.941 154.132 145.385 153.994 144.92 153.719C144.456 153.44 144.099 153.05 143.846 152.547C143.596 152.041 143.471 151.449 143.471 150.77C143.471 150.099 143.596 149.509 143.846 148.997C144.099 148.486 144.451 148.087 144.903 147.8C145.357 147.513 145.888 147.369 146.496 147.369C146.866 147.369 147.224 147.43 147.57 147.553C147.917 147.675 148.228 147.866 148.503 148.128C148.779 148.389 148.996 148.729 149.155 149.146C149.314 149.561 149.394 150.065 149.394 150.659V151.111H144.191V150.156H148.145C148.145 149.821 148.077 149.524 147.941 149.266C147.805 149.004 147.613 148.798 147.366 148.648C147.121 148.497 146.834 148.422 146.505 148.422C146.147 148.422 145.834 148.51 145.567 148.686C145.303 148.859 145.099 149.087 144.954 149.368C144.812 149.646 144.741 149.949 144.741 150.276V151.021C144.741 151.459 144.817 151.831 144.971 152.138C145.127 152.445 145.344 152.679 145.623 152.841C145.901 153 146.226 153.08 146.599 153.08C146.84 153.08 147.06 153.045 147.259 152.977C147.458 152.906 147.63 152.801 147.775 152.662C147.92 152.523 148.03 152.351 148.107 152.146L149.313 152.364C149.216 152.719 149.043 153.03 148.793 153.297C148.546 153.561 148.235 153.767 147.86 153.915C147.488 154.06 147.063 154.132 146.586 154.132ZM153.258 154.128C152.73 154.128 152.258 153.993 151.843 153.723C151.431 153.45 151.107 153.062 150.872 152.56C150.639 152.054 150.522 151.447 150.522 150.74C150.522 150.033 150.64 149.428 150.876 148.925C151.115 148.422 151.441 148.037 151.856 147.77C152.271 147.503 152.741 147.369 153.267 147.369C153.673 147.369 153.999 147.438 154.247 147.574C154.497 147.707 154.69 147.864 154.826 148.043C154.965 148.222 155.073 148.379 155.15 148.516H155.227V145.273H156.501V154H155.257V152.982H155.15C155.073 153.121 154.963 153.28 154.818 153.459C154.676 153.638 154.48 153.794 154.23 153.928C153.98 154.061 153.656 154.128 153.258 154.128ZM153.539 153.041C153.906 153.041 154.215 152.945 154.468 152.751C154.724 152.555 154.917 152.284 155.048 151.938C155.181 151.591 155.248 151.187 155.248 150.727C155.248 150.273 155.183 149.875 155.052 149.534C154.921 149.193 154.73 148.928 154.477 148.737C154.224 148.547 153.911 148.452 153.539 148.452C153.156 148.452 152.836 148.551 152.58 148.75C152.325 148.949 152.132 149.22 152.001 149.564C151.873 149.908 151.809 150.295 151.809 150.727C151.809 151.165 151.874 151.558 152.005 151.908C152.136 152.257 152.329 152.534 152.585 152.739C152.843 152.94 153.161 153.041 153.539 153.041ZM29.2997 163.455V164.477H25.6009V163.455H29.2997ZM26.6151 170V162.696C26.6151 162.287 26.7045 161.947 26.8835 161.678C27.0625 161.405 27.2997 161.202 27.5952 161.068C27.8906 160.932 28.2116 160.864 28.5582 160.864C28.8139 160.864 29.0327 160.885 29.2145 160.928C29.3963 160.967 29.5312 161.004 29.6193 161.038L29.321 162.07C29.2614 162.053 29.1847 162.033 29.0909 162.01C28.9972 161.984 28.8835 161.972 28.75 161.972C28.4403 161.972 28.2188 162.048 28.0852 162.202C27.9545 162.355 27.8892 162.577 27.8892 162.866V170H26.6151ZM33.1776 170.132C32.5327 170.132 31.9773 169.994 31.5114 169.719C31.0483 169.44 30.6903 169.05 30.4375 168.547C30.1875 168.041 30.0625 167.449 30.0625 166.77C30.0625 166.099 30.1875 165.509 30.4375 164.997C30.6903 164.486 31.0426 164.087 31.4943 163.8C31.9489 163.513 32.4801 163.369 33.0881 163.369C33.4574 163.369 33.8153 163.43 34.1619 163.553C34.5085 163.675 34.8196 163.866 35.0952 164.128C35.3707 164.389 35.5881 164.729 35.7472 165.146C35.9063 165.561 35.9858 166.065 35.9858 166.659V167.111H30.7827V166.156H34.7372C34.7372 165.821 34.669 165.524 34.5327 165.266C34.3963 165.004 34.2045 164.798 33.9574 164.648C33.7131 164.497 33.4261 164.422 33.0966 164.422C32.7386 164.422 32.4261 164.51 32.1591 164.686C31.8949 164.859 31.6903 165.087 31.5455 165.368C31.4034 165.646 31.3324 165.949 31.3324 166.276V167.021C31.3324 167.459 31.4091 167.831 31.5625 168.138C31.7188 168.445 31.9361 168.679 32.2145 168.841C32.4929 169 32.8182 169.08 33.1903 169.08C33.4318 169.08 33.652 169.045 33.8509 168.977C34.0497 168.906 34.2216 168.801 34.3665 168.662C34.5114 168.523 34.6222 168.351 34.6989 168.146L35.9048 168.364C35.8082 168.719 35.6349 169.03 35.3849 169.297C35.1378 169.561 34.8267 169.767 34.4517 169.915C34.0795 170.06 33.6548 170.132 33.1776 170.132ZM39.3043 170.145C38.8896 170.145 38.5146 170.068 38.1793 169.915C37.8441 169.759 37.5785 169.533 37.3825 169.237C37.1893 168.942 37.0927 168.58 37.0927 168.151C37.0927 167.781 37.1637 167.477 37.3058 167.239C37.4478 167 37.6396 166.811 37.881 166.672C38.1225 166.533 38.3924 166.428 38.6907 166.357C38.989 166.286 39.293 166.232 39.6026 166.195C39.9947 166.149 40.3129 166.112 40.5572 166.084C40.8015 166.053 40.979 166.003 41.0898 165.935C41.2006 165.866 41.256 165.756 41.256 165.602V165.572C41.256 165.2 41.1509 164.912 40.9407 164.707C40.7333 164.503 40.4237 164.401 40.0117 164.401C39.5827 164.401 39.2447 164.496 38.9975 164.686C38.7532 164.874 38.5842 165.082 38.4904 165.312L37.293 165.04C37.435 164.642 37.6424 164.321 37.9151 164.077C38.1907 163.83 38.5075 163.651 38.8654 163.54C39.2234 163.426 39.5998 163.369 39.9947 163.369C40.256 163.369 40.533 163.401 40.8256 163.463C41.1211 163.523 41.3967 163.634 41.6523 163.795C41.9109 163.957 42.1225 164.189 42.2873 164.49C42.4521 164.788 42.5344 165.176 42.5344 165.653V170H41.2901V169.105H41.239C41.1566 169.27 41.033 169.432 40.8683 169.591C40.7035 169.75 40.4918 169.882 40.2333 169.987C39.9748 170.092 39.6651 170.145 39.3043 170.145ZM39.5813 169.122C39.9336 169.122 40.2347 169.053 40.4847 168.913C40.7376 168.774 40.9293 168.592 41.06 168.368C41.1935 168.141 41.2603 167.898 41.2603 167.639V166.795C41.2148 166.841 41.1268 166.884 40.9961 166.923C40.8683 166.96 40.7219 166.993 40.5572 167.021C40.3924 167.047 40.2319 167.071 40.0756 167.094C39.9194 167.114 39.7887 167.131 39.6836 167.145C39.4364 167.176 39.2106 167.229 39.006 167.303C38.8043 167.376 38.6424 167.483 38.5202 167.622C38.4009 167.759 38.3413 167.94 38.3413 168.168C38.3413 168.483 38.4577 168.722 38.6907 168.884C38.9237 169.043 39.2205 169.122 39.5813 169.122ZM47.2869 163.455V164.477H43.7116V163.455H47.2869ZM44.6705 161.886H45.9446V168.078C45.9446 168.325 45.9815 168.511 46.0554 168.636C46.1293 168.759 46.2244 168.842 46.3409 168.888C46.4602 168.93 46.5895 168.952 46.7287 168.952C46.831 168.952 46.9205 168.945 46.9972 168.93C47.0739 168.916 47.1335 168.905 47.1761 168.896L47.4062 169.949C47.3324 169.977 47.2273 170.006 47.0909 170.034C46.9545 170.065 46.7841 170.082 46.5795 170.085C46.2443 170.091 45.9318 170.031 45.642 169.906C45.3523 169.781 45.1179 169.588 44.9389 169.327C44.7599 169.065 44.6705 168.737 44.6705 168.342V161.886ZM52.8427 167.286V163.455H54.1211V170H52.8683V168.866H52.8001C52.6495 169.216 52.408 169.507 52.0756 169.74C51.7461 169.97 51.3356 170.085 50.8441 170.085C50.4237 170.085 50.0515 169.993 49.7276 169.808C49.4066 169.621 49.1538 169.344 48.9691 168.977C48.7873 168.611 48.6964 168.158 48.6964 167.618V163.455H49.9705V167.464C49.9705 167.911 50.0941 168.266 50.3413 168.53C50.5884 168.794 50.9094 168.926 51.3043 168.926C51.543 168.926 51.7802 168.866 52.016 168.747C52.2546 168.628 52.4521 168.447 52.6083 168.206C52.7674 167.964 52.8455 167.658 52.8427 167.286ZM55.8331 170V163.455H57.0646V164.494H57.1328C57.2521 164.142 57.4624 163.865 57.7635 163.663C58.0675 163.459 58.4112 163.357 58.7947 163.357C58.8743 163.357 58.968 163.359 59.076 163.365C59.1868 163.371 59.2734 163.378 59.3359 163.386V164.605C59.2848 164.591 59.1939 164.575 59.0632 164.558C58.9325 164.538 58.8018 164.528 58.6712 164.528C58.37 164.528 58.1016 164.592 57.8658 164.72C57.6328 164.845 57.4482 165.02 57.3118 165.244C57.1754 165.466 57.1072 165.719 57.1072 166.003V170H55.8331ZM63.0252 170.132C62.3803 170.132 61.8249 169.994 61.359 169.719C60.896 169.44 60.538 169.05 60.2852 168.547C60.0352 168.041 59.9102 167.449 59.9102 166.77C59.9102 166.099 60.0352 165.509 60.2852 164.997C60.538 164.486 60.8903 164.087 61.342 163.8C61.7965 163.513 62.3278 163.369 62.9357 163.369C63.305 163.369 63.663 163.43 64.0096 163.553C64.3562 163.675 64.6673 163.866 64.9428 164.128C65.2184 164.389 65.4357 164.729 65.5948 165.146C65.7539 165.561 65.8335 166.065 65.8335 166.659V167.111H60.6303V166.156H64.5849C64.5849 165.821 64.5167 165.524 64.3803 165.266C64.244 165.004 64.0522 164.798 63.805 164.648C63.5607 164.497 63.2738 164.422 62.9442 164.422C62.5863 164.422 62.2738 164.51 62.0067 164.686C61.7425 164.859 61.538 165.087 61.3931 165.368C61.2511 165.646 61.18 165.949 61.18 166.276V167.021C61.18 167.459 61.2567 167.831 61.4102 168.138C61.5664 168.445 61.7837 168.679 62.0621 168.841C62.3406 169 62.6658 169.08 63.038 169.08C63.2795 169.08 63.4996 169.045 63.6985 168.977C63.8974 168.906 64.0692 168.801 64.2141 168.662C64.359 168.523 64.4698 168.351 64.5465 168.146L65.7525 168.364C65.6559 168.719 65.4826 169.03 65.2326 169.297C64.9854 169.561 64.6744 169.767 64.2994 169.915C63.9272 170.06 63.5025 170.132 63.0252 170.132ZM72.152 165.053L70.9972 165.257C70.9489 165.109 70.8722 164.969 70.767 164.835C70.6648 164.702 70.5256 164.592 70.3494 164.507C70.1733 164.422 69.9531 164.379 69.6889 164.379C69.3281 164.379 69.027 164.46 68.7855 164.622C68.544 164.781 68.4233 164.987 68.4233 165.24C68.4233 165.459 68.5043 165.635 68.6662 165.768C68.8281 165.902 69.0895 166.011 69.4503 166.097L70.4901 166.335C71.0923 166.474 71.5412 166.689 71.8366 166.979C72.1321 167.268 72.2798 167.645 72.2798 168.108C72.2798 168.5 72.1662 168.849 71.9389 169.156C71.7145 169.46 71.4006 169.699 70.9972 169.872C70.5966 170.045 70.1321 170.132 69.6037 170.132C68.8707 170.132 68.2727 169.976 67.8097 169.663C67.3466 169.348 67.0625 168.901 66.9574 168.321L68.1889 168.134C68.2656 168.455 68.4233 168.697 68.6619 168.862C68.9006 169.024 69.2116 169.105 69.5952 169.105C70.0128 169.105 70.3466 169.018 70.5966 168.845C70.8466 168.669 70.9716 168.455 70.9716 168.202C70.9716 167.997 70.8949 167.825 70.7415 167.686C70.5909 167.547 70.3594 167.442 70.0469 167.371L68.9389 167.128C68.3281 166.989 67.8764 166.767 67.5838 166.463C67.294 166.159 67.1491 165.774 67.1491 165.308C67.1491 164.922 67.2571 164.584 67.473 164.294C67.6889 164.004 67.9872 163.778 68.3679 163.616C68.7486 163.452 69.1847 163.369 69.6761 163.369C70.3835 163.369 70.9403 163.523 71.3466 163.83C71.7528 164.134 72.0213 164.541 72.152 165.053ZM78.7614 170.145C78.3466 170.145 77.9716 170.068 77.6364 169.915C77.3011 169.759 77.0355 169.533 76.8395 169.237C76.6463 168.942 76.5497 168.58 76.5497 168.151C76.5497 167.781 76.6207 167.477 76.7628 167.239C76.9048 167 77.0966 166.811 77.3381 166.672C77.5795 166.533 77.8494 166.428 78.1477 166.357C78.446 166.286 78.75 166.232 79.0597 166.195C79.4517 166.149 79.7699 166.112 80.0142 166.084C80.2585 166.053 80.4361 166.003 80.5469 165.935C80.6577 165.866 80.7131 165.756 80.7131 165.602V165.572C80.7131 165.2 80.608 164.912 80.3977 164.707C80.1903 164.503 79.8807 164.401 79.4688 164.401C79.0398 164.401 78.7017 164.496 78.4545 164.686C78.2102 164.874 78.0412 165.082 77.9474 165.312L76.75 165.04C76.892 164.642 77.0994 164.321 77.3722 164.077C77.6477 163.83 77.9645 163.651 78.3224 163.54C78.6804 163.426 79.0568 163.369 79.4517 163.369C79.7131 163.369 79.9901 163.401 80.2827 163.463C80.5781 163.523 80.8537 163.634 81.1094 163.795C81.3679 163.957 81.5795 164.189 81.7443 164.49C81.9091 164.788 81.9915 165.176 81.9915 165.653V170H80.7472V169.105H80.696C80.6136 169.27 80.4901 169.432 80.3253 169.591C80.1605 169.75 79.9489 169.882 79.6903 169.987C79.4318 170.092 79.1222 170.145 78.7614 170.145ZM79.0384 169.122C79.3906 169.122 79.6918 169.053 79.9418 168.913C80.1946 168.774 80.3864 168.592 80.517 168.368C80.6506 168.141 80.7173 167.898 80.7173 167.639V166.795C80.6719 166.841 80.5838 166.884 80.4531 166.923C80.3253 166.96 80.179 166.993 80.0142 167.021C79.8494 167.047 79.6889 167.071 79.5327 167.094C79.3764 167.114 79.2457 167.131 79.1406 167.145C78.8935 167.176 78.6676 167.229 78.4631 167.303C78.2614 167.376 78.0994 167.483 77.9773 167.622C77.858 167.759 77.7983 167.94 77.7983 168.168C77.7983 168.483 77.9148 168.722 78.1477 168.884C78.3807 169.043 78.6776 169.122 79.0384 169.122ZM84.9627 166.114V170H83.6886V163.455H84.9116V164.52H84.9925C85.1431 164.173 85.3789 163.895 85.6999 163.685C86.0238 163.474 86.4315 163.369 86.9229 163.369C87.369 163.369 87.7596 163.463 88.0948 163.651C88.43 163.835 88.69 164.111 88.8746 164.477C89.0593 164.844 89.1516 165.297 89.1516 165.837V170H87.8775V165.99C87.8775 165.516 87.7539 165.145 87.5067 164.878C87.2596 164.608 86.9201 164.473 86.4883 164.473C86.1928 164.473 85.93 164.537 85.6999 164.665C85.4727 164.793 85.2923 164.98 85.1587 165.227C85.0281 165.472 84.9627 165.767 84.9627 166.114ZM93.3107 170.128C92.7823 170.128 92.3107 169.993 91.896 169.723C91.484 169.45 91.1602 169.062 90.9244 168.56C90.6914 168.054 90.5749 167.447 90.5749 166.74C90.5749 166.033 90.6928 165.428 90.9286 164.925C91.1673 164.422 91.494 164.037 91.9087 163.77C92.3235 163.503 92.7937 163.369 93.3192 163.369C93.7255 163.369 94.0522 163.438 94.2994 163.574C94.5494 163.707 94.7425 163.864 94.8789 164.043C95.0181 164.222 95.1261 164.379 95.2028 164.516H95.2795V161.273H96.5536V170H95.3093V168.982H95.2028C95.1261 169.121 95.0153 169.28 94.8704 169.459C94.7283 169.638 94.5323 169.794 94.2823 169.928C94.0323 170.061 93.7085 170.128 93.3107 170.128ZM93.592 169.041C93.9585 169.041 94.2681 168.945 94.521 168.751C94.7766 168.555 94.9698 168.284 95.1005 167.938C95.234 167.591 95.3008 167.187 95.3008 166.727C95.3008 166.273 95.2354 165.875 95.1048 165.534C94.9741 165.193 94.7823 164.928 94.5295 164.737C94.2766 164.547 93.9641 164.452 93.592 164.452C93.2085 164.452 92.8888 164.551 92.6332 164.75C92.3775 164.949 92.1843 165.22 92.0536 165.564C91.9258 165.908 91.8619 166.295 91.8619 166.727C91.8619 167.165 91.9272 167.558 92.0579 167.908C92.1886 168.257 92.3817 168.534 92.6374 168.739C92.896 168.94 93.2141 169.041 93.592 169.041ZM103.453 170.145C103.038 170.145 102.663 170.068 102.328 169.915C101.993 169.759 101.727 169.533 101.531 169.237C101.338 168.942 101.241 168.58 101.241 168.151C101.241 167.781 101.312 167.477 101.454 167.239C101.596 167 101.788 166.811 102.029 166.672C102.271 166.533 102.541 166.428 102.839 166.357C103.137 166.286 103.441 166.232 103.751 166.195C104.143 166.149 104.461 166.112 104.706 166.084C104.95 166.053 105.127 166.003 105.238 165.935C105.349 165.866 105.404 165.756 105.404 165.602V165.572C105.404 165.2 105.299 164.912 105.089 164.707C104.882 164.503 104.572 164.401 104.16 164.401C103.731 164.401 103.393 164.496 103.146 164.686C102.902 164.874 102.733 165.082 102.639 165.312L101.441 165.04C101.583 164.642 101.791 164.321 102.064 164.077C102.339 163.83 102.656 163.651 103.014 163.54C103.372 163.426 103.748 163.369 104.143 163.369C104.404 163.369 104.681 163.401 104.974 163.463C105.27 163.523 105.545 163.634 105.801 163.795C106.059 163.957 106.271 164.189 106.436 164.49C106.6 164.788 106.683 165.176 106.683 165.653V170H105.439V169.105H105.387C105.305 169.27 105.181 169.432 105.017 169.591C104.852 169.75 104.64 169.882 104.382 169.987C104.123 170.092 103.814 170.145 103.453 170.145ZM103.73 169.122C104.082 169.122 104.383 169.053 104.633 168.913C104.886 168.774 105.078 168.592 105.208 168.368C105.342 168.141 105.409 167.898 105.409 167.639V166.795C105.363 166.841 105.275 166.884 105.145 166.923C105.017 166.96 104.87 166.993 104.706 167.021C104.541 167.047 104.38 167.071 104.224 167.094C104.068 167.114 103.937 167.131 103.832 167.145C103.585 167.176 103.359 167.229 103.154 167.303C102.953 167.376 102.791 167.483 102.669 167.622C102.549 167.759 102.49 167.94 102.49 168.168C102.49 168.483 102.606 168.722 102.839 168.884C103.072 169.043 103.369 169.122 103.73 169.122ZM116.461 165.053L115.306 165.257C115.257 165.109 115.181 164.969 115.076 164.835C114.973 164.702 114.834 164.592 114.658 164.507C114.482 164.422 114.262 164.379 113.998 164.379C113.637 164.379 113.336 164.46 113.094 164.622C112.853 164.781 112.732 164.987 112.732 165.24C112.732 165.459 112.813 165.635 112.975 165.768C113.137 165.902 113.398 166.011 113.759 166.097L114.799 166.335C115.401 166.474 115.85 166.689 116.145 166.979C116.441 167.268 116.588 167.645 116.588 168.108C116.588 168.5 116.475 168.849 116.248 169.156C116.023 169.46 115.709 169.699 115.306 169.872C114.905 170.045 114.441 170.132 113.912 170.132C113.179 170.132 112.581 169.976 112.118 169.663C111.655 169.348 111.371 168.901 111.266 168.321L112.498 168.134C112.574 168.455 112.732 168.697 112.971 168.862C113.209 169.024 113.52 169.105 113.904 169.105C114.321 169.105 114.655 169.018 114.905 168.845C115.155 168.669 115.28 168.455 115.28 168.202C115.28 167.997 115.203 167.825 115.05 167.686C114.9 167.547 114.668 167.442 114.355 167.371L113.248 167.128C112.637 166.989 112.185 166.767 111.892 166.463C111.603 166.159 111.458 165.774 111.458 165.308C111.458 164.922 111.566 164.584 111.782 164.294C111.998 164.004 112.296 163.778 112.676 163.616C113.057 163.452 113.493 163.369 113.985 163.369C114.692 163.369 115.249 163.523 115.655 163.83C116.061 164.134 116.33 164.541 116.461 165.053ZM117.989 170V163.455H119.212V164.52H119.293C119.43 164.159 119.653 163.878 119.962 163.676C120.272 163.472 120.643 163.369 121.075 163.369C121.512 163.369 121.879 163.472 122.174 163.676C122.472 163.881 122.692 164.162 122.835 164.52H122.903C123.059 164.17 123.308 163.892 123.648 163.685C123.989 163.474 124.396 163.369 124.867 163.369C125.461 163.369 125.945 163.555 126.32 163.928C126.698 164.3 126.887 164.861 126.887 165.611V170H125.613V165.73C125.613 165.287 125.492 164.966 125.251 164.767C125.009 164.568 124.721 164.469 124.386 164.469C123.971 164.469 123.648 164.597 123.418 164.852C123.188 165.105 123.073 165.43 123.073 165.828V170H121.803V165.649C121.803 165.294 121.692 165.009 121.471 164.793C121.249 164.577 120.961 164.469 120.606 164.469C120.364 164.469 120.141 164.533 119.937 164.661C119.735 164.786 119.572 164.96 119.447 165.185C119.325 165.409 119.263 165.669 119.263 165.964V170H117.989ZM131.352 170.132C130.738 170.132 130.203 169.991 129.745 169.71C129.288 169.429 128.933 169.036 128.68 168.53C128.427 168.024 128.301 167.433 128.301 166.757C128.301 166.078 128.427 165.484 128.68 164.976C128.933 164.467 129.288 164.072 129.745 163.791C130.203 163.51 130.738 163.369 131.352 163.369C131.966 163.369 132.501 163.51 132.958 163.791C133.416 164.072 133.771 164.467 134.024 164.976C134.277 165.484 134.403 166.078 134.403 166.757C134.403 167.433 134.277 168.024 134.024 168.53C133.771 169.036 133.416 169.429 132.958 169.71C132.501 169.991 131.966 170.132 131.352 170.132ZM131.356 169.062C131.754 169.062 132.083 168.957 132.345 168.747C132.606 168.537 132.799 168.257 132.924 167.908C133.052 167.558 133.116 167.173 133.116 166.753C133.116 166.335 133.052 165.952 132.924 165.602C132.799 165.25 132.606 164.967 132.345 164.754C132.083 164.541 131.754 164.435 131.356 164.435C130.956 164.435 130.623 164.541 130.359 164.754C130.098 164.967 129.903 165.25 129.775 165.602C129.65 165.952 129.588 166.335 129.588 166.753C129.588 167.173 129.65 167.558 129.775 167.908C129.903 168.257 130.098 168.537 130.359 168.747C130.623 168.957 130.956 169.062 131.356 169.062ZM138.582 170.132C137.969 170.132 137.433 169.991 136.976 169.71C136.518 169.429 136.163 169.036 135.911 168.53C135.658 168.024 135.531 167.433 135.531 166.757C135.531 166.078 135.658 165.484 135.911 164.976C136.163 164.467 136.518 164.072 136.976 163.791C137.433 163.51 137.969 163.369 138.582 163.369C139.196 163.369 139.732 163.51 140.189 163.791C140.646 164.072 141.001 164.467 141.254 164.976C141.507 165.484 141.634 166.078 141.634 166.757C141.634 167.433 141.507 168.024 141.254 168.53C141.001 169.036 140.646 169.429 140.189 169.71C139.732 169.991 139.196 170.132 138.582 170.132ZM138.587 169.062C138.984 169.062 139.314 168.957 139.575 168.747C139.837 168.537 140.03 168.257 140.155 167.908C140.283 167.558 140.347 167.173 140.347 166.753C140.347 166.335 140.283 165.952 140.155 165.602C140.03 165.25 139.837 164.967 139.575 164.754C139.314 164.541 138.984 164.435 138.587 164.435C138.186 164.435 137.854 164.541 137.589 164.754C137.328 164.967 137.134 165.25 137.006 165.602C136.881 165.952 136.818 166.335 136.818 166.753C136.818 167.173 136.881 167.558 137.006 167.908C137.134 168.257 137.328 168.537 137.589 168.747C137.854 168.957 138.186 169.062 138.587 169.062ZM146.111 163.455V164.477H142.536V163.455H146.111ZM143.495 161.886H144.769V168.078C144.769 168.325 144.806 168.511 144.88 168.636C144.953 168.759 145.049 168.842 145.165 168.888C145.284 168.93 145.414 168.952 145.553 168.952C145.655 168.952 145.745 168.945 145.821 168.93C145.898 168.916 145.958 168.905 146 168.896L146.23 169.949C146.157 169.977 146.051 170.006 145.915 170.034C145.779 170.065 145.608 170.082 145.404 170.085C145.069 170.091 144.756 170.031 144.466 169.906C144.176 169.781 143.942 169.588 143.763 169.327C143.584 169.065 143.495 168.737 143.495 168.342V161.886ZM148.935 166.114V170H147.661V161.273H148.918V164.52H148.999C149.153 164.168 149.387 163.888 149.702 163.68C150.018 163.473 150.43 163.369 150.938 163.369C151.387 163.369 151.779 163.462 152.114 163.646C152.452 163.831 152.714 164.107 152.898 164.473C153.086 164.837 153.18 165.291 153.18 165.837V170H151.906V165.99C151.906 165.51 151.782 165.138 151.535 164.874C151.288 164.607 150.944 164.473 150.504 164.473C150.202 164.473 149.933 164.537 149.694 164.665C149.458 164.793 149.272 164.98 149.136 165.227C149.002 165.472 148.935 165.767 148.935 166.114ZM157.701 170.132C157.056 170.132 156.501 169.994 156.035 169.719C155.572 169.44 155.214 169.05 154.961 168.547C154.711 168.041 154.586 167.449 154.586 166.77C154.586 166.099 154.711 165.509 154.961 164.997C155.214 164.486 155.566 164.087 156.018 163.8C156.472 163.513 157.004 163.369 157.612 163.369C157.981 163.369 158.339 163.43 158.685 163.553C159.032 163.675 159.343 163.866 159.619 164.128C159.894 164.389 160.112 164.729 160.271 165.146C160.43 165.561 160.509 166.065 160.509 166.659V167.111H155.306V166.156H159.261C159.261 165.821 159.192 165.524 159.056 165.266C158.92 165.004 158.728 164.798 158.481 164.648C158.237 164.497 157.95 164.422 157.62 164.422C157.262 164.422 156.95 164.51 156.683 164.686C156.418 164.859 156.214 165.087 156.069 165.368C155.927 165.646 155.856 165.949 155.856 166.276V167.021C155.856 167.459 155.933 167.831 156.086 168.138C156.242 168.445 156.46 168.679 156.738 168.841C157.016 169 157.342 169.08 157.714 169.08C157.955 169.08 158.175 169.045 158.374 168.977C158.573 168.906 158.745 168.801 158.89 168.662C159.035 168.523 159.146 168.351 159.222 168.146L160.428 168.364C160.332 168.719 160.158 169.03 159.908 169.297C159.661 169.561 159.35 169.767 158.975 169.915C158.603 170.06 158.178 170.132 157.701 170.132ZM161.923 170V163.455H163.154V164.494H163.223C163.342 164.142 163.552 163.865 163.853 163.663C164.157 163.459 164.501 163.357 164.885 163.357C164.964 163.357 165.058 163.359 165.166 163.365C165.277 163.371 165.363 163.378 165.426 163.386V164.605C165.375 164.591 165.284 164.575 165.153 164.558C165.022 164.538 164.892 164.528 164.761 164.528C164.46 164.528 164.191 164.592 163.956 164.72C163.723 164.845 163.538 165.02 163.402 165.244C163.265 165.466 163.197 165.719 163.197 166.003V170H161.923ZM27.9718 186V179.455H29.2459V186H27.9718ZM28.6152 178.445C28.3936 178.445 28.2033 178.371 28.0442 178.223C27.888 178.072 27.8098 177.893 27.8098 177.686C27.8098 177.476 27.888 177.297 28.0442 177.149C28.2033 176.999 28.3936 176.923 28.6152 176.923C28.8368 176.923 29.0257 176.999 29.182 177.149C29.3411 177.297 29.4206 177.476 29.4206 177.686C29.4206 177.893 29.3411 178.072 29.182 178.223C29.0257 178.371 28.8368 178.445 28.6152 178.445ZM32.2342 182.114V186H30.96V179.455H32.1831V180.52H32.264C32.4146 180.173 32.6504 179.895 32.9714 179.685C33.2953 179.474 33.7029 179.369 34.1944 179.369C34.6404 179.369 35.0311 179.463 35.3663 179.651C35.7015 179.835 35.9615 180.111 36.1461 180.477C36.3308 180.844 36.4231 181.297 36.4231 181.837V186H35.149V181.99C35.149 181.516 35.0254 181.145 34.7782 180.878C34.5311 180.608 34.1916 180.473 33.7598 180.473C33.4643 180.473 33.2015 180.537 32.9714 180.665C32.7441 180.793 32.5637 180.98 32.4302 181.227C32.2995 181.472 32.2342 181.767 32.2342 182.114ZM41.1873 179.455V180.477H37.612V179.455H41.1873ZM38.5708 177.886H39.845V184.078C39.845 184.325 39.8819 184.511 39.9558 184.636C40.0297 184.759 40.1248 184.842 40.2413 184.888C40.3606 184.93 40.4899 184.952 40.6291 184.952C40.7314 184.952 40.8208 184.945 40.8975 184.93C40.9743 184.916 41.0339 184.905 41.0765 184.896L41.3066 185.949C41.2328 185.977 41.1277 186.006 40.9913 186.034C40.8549 186.065 40.6845 186.082 40.4799 186.085C40.1447 186.091 39.8322 186.031 39.5424 185.906C39.2527 185.781 39.0183 185.588 38.8393 185.327C38.6603 185.065 38.5708 184.737 38.5708 184.342V177.886ZM45.3475 186.132C44.7026 186.132 44.1472 185.994 43.6813 185.719C43.2182 185.44 42.8603 185.05 42.6074 184.547C42.3574 184.041 42.2324 183.449 42.2324 182.77C42.2324 182.099 42.3574 181.509 42.6074 180.997C42.8603 180.486 43.2125 180.087 43.6642 179.8C44.1188 179.513 44.65 179.369 45.258 179.369C45.6273 179.369 45.9853 179.43 46.3319 179.553C46.6784 179.675 46.9895 179.866 47.2651 180.128C47.5407 180.389 47.758 180.729 47.9171 181.146C48.0762 181.561 48.1557 182.065 48.1557 182.659V183.111H42.9526V182.156H46.9071C46.9071 181.821 46.839 181.524 46.7026 181.266C46.5662 181.004 46.3745 180.798 46.1273 180.648C45.883 180.497 45.5961 180.422 45.2665 180.422C44.9086 180.422 44.5961 180.51 44.329 180.686C44.0648 180.859 43.8603 181.087 43.7154 181.368C43.5733 181.646 43.5023 181.949 43.5023 182.276V183.021C43.5023 183.459 43.579 183.831 43.7324 184.138C43.8887 184.445 44.106 184.679 44.3844 184.841C44.6628 185 44.9881 185.08 45.3603 185.08C45.6017 185.08 45.8219 185.045 46.0208 184.977C46.2196 184.906 46.3915 184.801 46.5364 184.662C46.6813 184.523 46.7921 184.351 46.8688 184.146L48.0748 184.364C47.9782 184.719 47.8049 185.03 47.5549 185.297C47.3077 185.561 46.9966 185.767 46.6216 185.915C46.2495 186.06 45.8248 186.132 45.3475 186.132ZM49.5694 186V179.455H50.801V180.494H50.8691C50.9885 180.142 51.1987 179.865 51.4998 179.663C51.8038 179.459 52.1475 179.357 52.5311 179.357C52.6106 179.357 52.7044 179.359 52.8123 179.365C52.9231 179.371 53.0098 179.378 53.0723 179.386V180.605C53.0211 180.591 52.9302 180.575 52.7995 180.558C52.6689 180.538 52.5382 180.528 52.4075 180.528C52.1064 180.528 51.8379 180.592 51.6021 180.72C51.3691 180.845 51.1845 181.02 51.0481 181.244C50.9118 181.466 50.8436 181.719 50.8436 182.003V186H49.5694ZM57.6767 179.455V180.477H53.9778V179.455H57.6767ZM54.992 186V178.696C54.992 178.287 55.0815 177.947 55.2605 177.678C55.4395 177.405 55.6767 177.202 55.9721 177.068C56.2676 176.932 56.5886 176.864 56.9352 176.864C57.1909 176.864 57.4096 176.885 57.5914 176.928C57.7733 176.967 57.9082 177.004 57.9963 177.038L57.698 178.07C57.6383 178.053 57.5616 178.033 57.4679 178.01C57.3741 177.984 57.2605 177.972 57.127 177.972C56.8173 177.972 56.5957 178.048 56.4622 178.202C56.3315 178.355 56.2662 178.577 56.2662 178.866V186H54.992ZM60.6969 186.145C60.2821 186.145 59.9071 186.068 59.5719 185.915C59.2367 185.759 58.9711 185.533 58.775 185.237C58.5819 184.942 58.4853 184.58 58.4853 184.151C58.4853 183.781 58.5563 183.477 58.6983 183.239C58.8404 183 59.0321 182.811 59.2736 182.672C59.5151 182.533 59.785 182.428 60.0833 182.357C60.3816 182.286 60.6855 182.232 60.9952 182.195C61.3873 182.149 61.7054 182.112 61.9498 182.084C62.1941 182.053 62.3716 182.003 62.4824 181.935C62.5932 181.866 62.6486 181.756 62.6486 181.602V181.572C62.6486 181.2 62.5435 180.912 62.3333 180.707C62.1259 180.503 61.8162 180.401 61.4043 180.401C60.9753 180.401 60.6373 180.496 60.3901 180.686C60.1458 180.874 59.9767 181.082 59.883 181.312L58.6855 181.04C58.8276 180.642 59.035 180.321 59.3077 180.077C59.5833 179.83 59.9 179.651 60.258 179.54C60.6159 179.426 60.9924 179.369 61.3873 179.369C61.6486 179.369 61.9256 179.401 62.2182 179.463C62.5137 179.523 62.7892 179.634 63.0449 179.795C63.3034 179.957 63.5151 180.189 63.6799 180.49C63.8446 180.788 63.927 181.176 63.927 181.653V186H62.6827V185.105H62.6316C62.5492 185.27 62.4256 185.432 62.2608 185.591C62.0961 185.75 61.8844 185.882 61.6259 185.987C61.3674 186.092 61.0577 186.145 60.6969 186.145ZM60.9739 185.122C61.3262 185.122 61.6273 185.053 61.8773 184.913C62.1301 184.774 62.3219 184.592 62.4526 184.368C62.5861 184.141 62.6529 183.898 62.6529 183.639V182.795C62.6074 182.841 62.5194 182.884 62.3887 182.923C62.2608 182.96 62.1145 182.993 61.9498 183.021C61.785 183.047 61.6245 183.071 61.4682 183.094C61.312 183.114 61.1813 183.131 61.0762 183.145C60.829 183.176 60.6032 183.229 60.3986 183.303C60.1969 183.376 60.035 183.483 59.9128 183.622C59.7935 183.759 59.7338 183.94 59.7338 184.168C59.7338 184.483 59.8503 184.722 60.0833 184.884C60.3162 185.043 60.6131 185.122 60.9739 185.122ZM68.3812 186.132C67.7477 186.132 67.2022 185.989 66.7449 185.702C66.2903 185.412 65.9409 185.013 65.6966 184.504C65.4522 183.996 65.3301 183.413 65.3301 182.757C65.3301 182.092 65.4551 181.506 65.7051 180.997C65.9551 180.486 66.3074 180.087 66.7619 179.8C67.2164 179.513 67.752 179.369 68.3684 179.369C68.8656 179.369 69.3088 179.462 69.698 179.646C70.0872 179.828 70.4011 180.084 70.6397 180.413C70.8812 180.743 71.0247 181.128 71.0701 181.568H69.8301C69.7619 181.261 69.6056 180.997 69.3613 180.776C69.1199 180.554 68.796 180.443 68.3897 180.443C68.0346 180.443 67.7235 180.537 67.4565 180.724C67.1923 180.909 66.9863 181.173 66.8386 181.517C66.6909 181.858 66.617 182.261 66.617 182.727C66.617 183.205 66.6895 183.616 66.8343 183.963C66.9792 184.31 67.1838 184.578 67.448 184.768C67.715 184.959 68.0289 185.054 68.3897 185.054C68.6312 185.054 68.85 185.01 69.046 184.922C69.2449 184.831 69.411 184.702 69.5446 184.534C69.6809 184.366 69.7761 184.165 69.8301 183.929H71.0701C71.0247 184.352 70.8869 184.73 70.6568 185.062C70.4267 185.395 70.1184 185.656 69.7321 185.847C69.3485 186.037 68.8983 186.132 68.3812 186.132ZM75.2537 186.132C74.6088 186.132 74.0534 185.994 73.5875 185.719C73.1245 185.44 72.7665 185.05 72.5137 184.547C72.2637 184.041 72.1387 183.449 72.1387 182.77C72.1387 182.099 72.2637 181.509 72.5137 180.997C72.7665 180.486 73.1188 180.087 73.5705 179.8C74.025 179.513 74.5563 179.369 75.1642 179.369C75.5336 179.369 75.8915 179.43 76.2381 179.553C76.5847 179.675 76.8958 179.866 77.1713 180.128C77.4469 180.389 77.6642 180.729 77.8233 181.146C77.9824 181.561 78.062 182.065 78.062 182.659V183.111H72.8588V182.156H76.8134C76.8134 181.821 76.7452 181.524 76.6088 181.266C76.4725 181.004 76.2807 180.798 76.0336 180.648C75.7892 180.497 75.5023 180.422 75.1728 180.422C74.8148 180.422 74.5023 180.51 74.2353 180.686C73.9711 180.859 73.7665 181.087 73.6216 181.368C73.4796 181.646 73.4086 181.949 73.4086 182.276V183.021C73.4086 183.459 73.4853 183.831 73.6387 184.138C73.7949 184.445 74.0123 184.679 74.2907 184.841C74.5691 185 74.8944 185.08 75.2665 185.08C75.508 185.08 75.7282 185.045 75.927 184.977C76.1259 184.906 76.2978 184.801 76.4426 184.662C76.5875 184.523 76.6983 184.351 76.775 184.146L77.981 184.364C77.8844 184.719 77.7111 185.03 77.4611 185.297C77.214 185.561 76.9029 185.767 76.5279 185.915C76.1557 186.06 75.731 186.132 75.2537 186.132ZM84.0705 186L82.1444 179.455H83.4611L84.7438 184.261H84.8077L86.0946 179.455H87.4114L88.6898 184.24H88.7537L90.0279 179.455H91.3446L89.4228 186H88.123L86.7935 181.274H86.6955L85.3659 186H84.0705ZM92.5538 186V179.455H93.8279V186H92.5538ZM93.1973 178.445C92.9757 178.445 92.7853 178.371 92.6262 178.223C92.47 178.072 92.3919 177.893 92.3919 177.686C92.3919 177.476 92.47 177.297 92.6262 177.149C92.7853 176.999 92.9757 176.923 93.1973 176.923C93.4189 176.923 93.6078 176.999 93.764 177.149C93.9231 177.297 94.0027 177.476 94.0027 177.686C94.0027 177.893 93.9231 178.072 93.764 178.223C93.6078 178.371 93.4189 178.445 93.1973 178.445ZM98.5975 179.455V180.477H95.0222V179.455H98.5975ZM95.981 177.886H97.2551V184.078C97.2551 184.325 97.2921 184.511 97.3659 184.636C97.4398 184.759 97.535 184.842 97.6515 184.888C97.7708 184.93 97.9 184.952 98.0392 184.952C98.1415 184.952 98.231 184.945 98.3077 184.93C98.3844 184.916 98.4441 184.905 98.4867 184.896L98.7168 185.949C98.6429 185.977 98.5378 186.006 98.4015 186.034C98.2651 186.065 98.0946 186.082 97.8901 186.085C97.5549 186.091 97.2424 186.031 96.9526 185.906C96.6628 185.781 96.4284 185.588 96.2495 185.327C96.0705 185.065 95.981 184.737 95.981 184.342V177.886ZM101.422 182.114V186H100.148V177.273H101.405V180.52H101.486C101.639 180.168 101.873 179.888 102.189 179.68C102.504 179.473 102.916 179.369 103.425 179.369C103.873 179.369 104.265 179.462 104.601 179.646C104.939 179.831 105.2 180.107 105.385 180.473C105.572 180.837 105.666 181.291 105.666 181.837V186H104.392V181.99C104.392 181.51 104.268 181.138 104.021 180.874C103.774 180.607 103.43 180.473 102.99 180.473C102.689 180.473 102.419 180.537 102.18 180.665C101.944 180.793 101.758 180.98 101.622 181.227C101.488 181.472 101.422 181.767 101.422 182.114ZM113.597 179.455V180.477H110.022V179.455H113.597ZM110.981 177.886H112.255V184.078C112.255 184.325 112.292 184.511 112.366 184.636C112.44 184.759 112.535 184.842 112.651 184.888C112.771 184.93 112.9 184.952 113.039 184.952C113.142 184.952 113.231 184.945 113.308 184.93C113.384 184.916 113.444 184.905 113.487 184.896L113.717 185.949C113.643 185.977 113.538 186.006 113.401 186.034C113.265 186.065 113.095 186.082 112.89 186.085C112.555 186.091 112.242 186.031 111.953 185.906C111.663 185.781 111.428 185.588 111.249 185.327C111.07 185.065 110.981 184.737 110.981 184.342V177.886ZM116.422 182.114V186H115.148V177.273H116.405V180.52H116.486C116.639 180.168 116.873 179.888 117.189 179.68C117.504 179.473 117.916 179.369 118.425 179.369C118.873 179.369 119.265 179.462 119.601 179.646C119.939 179.831 120.2 180.107 120.385 180.473C120.572 180.837 120.666 181.291 120.666 181.837V186H119.392V181.99C119.392 181.51 119.268 181.138 119.021 180.874C118.774 180.607 118.43 180.473 117.99 180.473C117.689 180.473 117.419 180.537 117.18 180.665C116.944 180.793 116.758 180.98 116.622 181.227C116.488 181.472 116.422 181.767 116.422 182.114ZM125.187 186.132C124.542 186.132 123.987 185.994 123.521 185.719C123.058 185.44 122.7 185.05 122.447 184.547C122.197 184.041 122.072 183.449 122.072 182.77C122.072 182.099 122.197 181.509 122.447 180.997C122.7 180.486 123.052 180.087 123.504 179.8C123.959 179.513 124.49 179.369 125.098 179.369C125.467 179.369 125.825 179.43 126.172 179.553C126.518 179.675 126.829 179.866 127.105 180.128C127.381 180.389 127.598 180.729 127.757 181.146C127.916 181.561 127.996 182.065 127.996 182.659V183.111H122.792V182.156H126.747C126.747 181.821 126.679 181.524 126.542 181.266C126.406 181.004 126.214 180.798 125.967 180.648C125.723 180.497 125.436 180.422 125.106 180.422C124.748 180.422 124.436 180.51 124.169 180.686C123.905 180.859 123.7 181.087 123.555 181.368C123.413 181.646 123.342 181.949 123.342 182.276V183.021C123.342 183.459 123.419 183.831 123.572 184.138C123.729 184.445 123.946 184.679 124.224 184.841C124.503 185 124.828 185.08 125.2 185.08C125.442 185.08 125.662 185.045 125.861 184.977C126.059 184.906 126.231 184.801 126.376 184.662C126.521 184.523 126.632 184.351 126.709 184.146L127.915 184.364C127.818 184.719 127.645 185.03 127.395 185.297C127.148 185.561 126.836 185.767 126.461 185.915C126.089 186.06 125.665 186.132 125.187 186.132ZM133.859 177.273V186H132.585V177.273H133.859ZM137.478 186.145C137.063 186.145 136.688 186.068 136.353 185.915C136.018 185.759 135.752 185.533 135.556 185.237C135.363 184.942 135.267 184.58 135.267 184.151C135.267 183.781 135.338 183.477 135.48 183.239C135.622 183 135.813 182.811 136.055 182.672C136.296 182.533 136.566 182.428 136.865 182.357C137.163 182.286 137.467 182.232 137.776 182.195C138.169 182.149 138.487 182.112 138.731 182.084C138.975 182.053 139.153 182.003 139.264 181.935C139.374 181.866 139.43 181.756 139.43 181.602V181.572C139.43 181.2 139.325 180.912 139.115 180.707C138.907 180.503 138.597 180.401 138.186 180.401C137.757 180.401 137.419 180.496 137.171 180.686C136.927 180.874 136.758 181.082 136.664 181.312L135.467 181.04C135.609 180.642 135.816 180.321 136.089 180.077C136.365 179.83 136.681 179.651 137.039 179.54C137.397 179.426 137.774 179.369 138.169 179.369C138.43 179.369 138.707 179.401 138.999 179.463C139.295 179.523 139.57 179.634 139.826 179.795C140.085 179.957 140.296 180.189 140.461 180.49C140.626 180.788 140.708 181.176 140.708 181.653V186H139.464V185.105H139.413C139.33 185.27 139.207 185.432 139.042 185.591C138.877 185.75 138.666 185.882 138.407 185.987C138.149 186.092 137.839 186.145 137.478 186.145ZM137.755 185.122C138.107 185.122 138.409 185.053 138.659 184.913C138.911 184.774 139.103 184.592 139.234 184.368C139.367 184.141 139.434 183.898 139.434 183.639V182.795C139.389 182.841 139.301 182.884 139.17 182.923C139.042 182.96 138.896 182.993 138.731 183.021C138.566 183.047 138.406 183.071 138.249 183.094C138.093 183.114 137.963 183.131 137.857 183.145C137.61 183.176 137.384 183.229 137.18 183.303C136.978 183.376 136.816 183.483 136.694 183.622C136.575 183.759 136.515 183.94 136.515 184.168C136.515 184.483 136.632 184.722 136.865 184.884C137.097 185.043 137.394 185.122 137.755 185.122ZM145.461 179.455V180.477H141.885V179.455H145.461ZM142.844 177.886H144.118V184.078C144.118 184.325 144.155 184.511 144.229 184.636C144.303 184.759 144.398 184.842 144.515 184.888C144.634 184.93 144.763 184.952 144.903 184.952C145.005 184.952 145.094 184.945 145.171 184.93C145.248 184.916 145.307 184.905 145.35 184.896L145.58 185.949C145.506 185.977 145.401 186.006 145.265 186.034C145.128 186.065 144.958 186.082 144.753 186.085C144.418 186.091 144.106 186.031 143.816 185.906C143.526 185.781 143.292 185.588 143.113 185.327C142.934 185.065 142.844 184.737 142.844 184.342V177.886ZM149.621 186.132C148.976 186.132 148.421 185.994 147.955 185.719C147.492 185.44 147.134 185.05 146.881 184.547C146.631 184.041 146.506 183.449 146.506 182.77C146.506 182.099 146.631 181.509 146.881 180.997C147.134 180.486 147.486 180.087 147.938 179.8C148.392 179.513 148.923 179.369 149.531 179.369C149.901 179.369 150.259 179.43 150.605 179.553C150.952 179.675 151.263 179.866 151.539 180.128C151.814 180.389 152.031 180.729 152.191 181.146C152.35 181.561 152.429 182.065 152.429 182.659V183.111H147.226V182.156H151.181C151.181 181.821 151.112 181.524 150.976 181.266C150.84 181.004 150.648 180.798 150.401 180.648C150.156 180.497 149.869 180.422 149.54 180.422C149.182 180.422 148.869 180.51 148.602 180.686C148.338 180.859 148.134 181.087 147.989 181.368C147.847 181.646 147.776 181.949 147.776 182.276V183.021C147.776 183.459 147.852 183.831 148.006 184.138C148.162 184.445 148.379 184.679 148.658 184.841C148.936 185 149.262 185.08 149.634 185.08C149.875 185.08 150.095 185.045 150.294 184.977C150.493 184.906 150.665 184.801 150.81 184.662C150.955 184.523 151.066 184.351 151.142 184.146L152.348 184.364C152.252 184.719 152.078 185.03 151.828 185.297C151.581 185.561 151.27 185.767 150.895 185.915C150.523 186.06 150.098 186.132 149.621 186.132ZM158.748 181.053L157.593 181.257C157.545 181.109 157.468 180.969 157.363 180.835C157.26 180.702 157.121 180.592 156.945 180.507C156.769 180.422 156.549 180.379 156.285 180.379C155.924 180.379 155.623 180.46 155.381 180.622C155.14 180.781 155.019 180.987 155.019 181.24C155.019 181.459 155.1 181.635 155.262 181.768C155.424 181.902 155.685 182.011 156.046 182.097L157.086 182.335C157.688 182.474 158.137 182.689 158.432 182.979C158.728 183.268 158.876 183.645 158.876 184.108C158.876 184.5 158.762 184.849 158.535 185.156C158.31 185.46 157.996 185.699 157.593 185.872C157.192 186.045 156.728 186.132 156.199 186.132C155.466 186.132 154.868 185.976 154.405 185.663C153.942 185.348 153.658 184.901 153.553 184.321L154.785 184.134C154.861 184.455 155.019 184.697 155.258 184.862C155.496 185.024 155.807 185.105 156.191 185.105C156.608 185.105 156.942 185.018 157.192 184.845C157.442 184.669 157.567 184.455 157.567 184.202C157.567 183.997 157.491 183.825 157.337 183.686C157.187 183.547 156.955 183.442 156.643 183.371L155.535 183.128C154.924 182.989 154.472 182.767 154.18 182.463C153.89 182.159 153.745 181.774 153.745 181.308C153.745 180.922 153.853 180.584 154.069 180.294C154.285 180.004 154.583 179.778 154.964 179.616C155.344 179.452 155.78 179.369 156.272 179.369C156.979 179.369 157.536 179.523 157.942 179.83C158.349 180.134 158.617 180.541 158.748 181.053ZM163.332 179.455V180.477H159.757V179.455H163.332ZM160.715 177.886H161.99V184.078C161.99 184.325 162.026 184.511 162.1 184.636C162.174 184.759 162.269 184.842 162.386 184.888C162.505 184.93 162.634 184.952 162.774 184.952C162.876 184.952 162.965 184.945 163.042 184.93C163.119 184.916 163.178 184.905 163.221 184.896L163.451 185.949C163.377 185.977 163.272 186.006 163.136 186.034C162.999 186.065 162.829 186.082 162.624 186.085C162.289 186.091 161.977 186.031 161.687 185.906C161.397 185.781 161.163 185.588 160.984 185.327C160.805 185.065 160.715 184.737 160.715 184.342V177.886ZM50.5224 195.455L48.1488 202H46.7852L44.4073 195.455H45.7752L47.4329 200.491H47.5011L49.1545 195.455H50.5224ZM54.3182 202.132C53.6733 202.132 53.1179 201.994 52.652 201.719C52.1889 201.44 51.831 201.05 51.5781 200.547C51.3281 200.041 51.2031 199.449 51.2031 198.77C51.2031 198.099 51.3281 197.509 51.5781 196.997C51.831 196.486 52.1832 196.087 52.6349 195.8C53.0895 195.513 53.6207 195.369 54.2287 195.369C54.598 195.369 54.956 195.43 55.3026 195.553C55.6491 195.675 55.9602 195.866 56.2358 196.128C56.5114 196.389 56.7287 196.729 56.8878 197.146C57.0469 197.561 57.1264 198.065 57.1264 198.659V199.111H51.9233V198.156H55.8778C55.8778 197.821 55.8097 197.524 55.6733 197.266C55.5369 197.004 55.3452 196.798 55.098 196.648C54.8537 196.497 54.5668 196.422 54.2372 196.422C53.8793 196.422 53.5668 196.51 53.2997 196.686C53.0355 196.859 52.831 197.087 52.6861 197.368C52.544 197.646 52.473 197.949 52.473 198.276V199.021C52.473 199.459 52.5497 199.831 52.7031 200.138C52.8594 200.445 53.0767 200.679 53.3551 200.841C53.6335 201 53.9588 201.08 54.331 201.08C54.5724 201.08 54.7926 201.045 54.9915 200.977C55.1903 200.906 55.3622 200.801 55.5071 200.662C55.652 200.523 55.7628 200.351 55.8395 200.146L57.0455 200.364C56.9489 200.719 56.7756 201.03 56.5256 201.297C56.2784 201.561 55.9673 201.767 55.5923 201.915C55.2202 202.06 54.7955 202.132 54.3182 202.132ZM58.5401 202V195.455H59.7717V196.494H59.8398C59.9592 196.142 60.1694 195.865 60.4705 195.663C60.7745 195.459 61.1183 195.357 61.5018 195.357C61.5813 195.357 61.6751 195.359 61.783 195.365C61.8938 195.371 61.9805 195.378 62.043 195.386V196.605C61.9918 196.591 61.9009 196.575 61.7702 196.558C61.6396 196.538 61.5089 196.528 61.3782 196.528C61.0771 196.528 60.8086 196.592 60.5728 196.72C60.3398 196.845 60.1552 197.02 60.0188 197.244C59.8825 197.466 59.8143 197.719 59.8143 198.003V202H58.5401ZM68.0504 197.053L66.8956 197.257C66.8473 197.109 66.7706 196.969 66.6655 196.835C66.5632 196.702 66.424 196.592 66.2479 196.507C66.0717 196.422 65.8516 196.379 65.5874 196.379C65.2266 196.379 64.9254 196.46 64.6839 196.622C64.4425 196.781 64.3217 196.987 64.3217 197.24C64.3217 197.459 64.4027 197.635 64.5646 197.768C64.7266 197.902 64.9879 198.011 65.3487 198.097L66.3885 198.335C66.9908 198.474 67.4396 198.689 67.7351 198.979C68.0305 199.268 68.1783 199.645 68.1783 200.108C68.1783 200.5 68.0646 200.849 67.8374 201.156C67.6129 201.46 67.299 201.699 66.8956 201.872C66.495 202.045 66.0305 202.132 65.5021 202.132C64.7692 202.132 64.1712 201.976 63.7081 201.663C63.245 201.348 62.9609 200.901 62.8558 200.321L64.0874 200.134C64.1641 200.455 64.3217 200.697 64.5604 200.862C64.799 201.024 65.1101 201.105 65.4936 201.105C65.9112 201.105 66.245 201.018 66.495 200.845C66.745 200.669 66.87 200.455 66.87 200.202C66.87 199.997 66.7933 199.825 66.6399 199.686C66.4893 199.547 66.2578 199.442 65.9453 199.371L64.8374 199.128C64.2266 198.989 63.7749 198.767 63.4822 198.463C63.1925 198.159 63.0476 197.774 63.0476 197.308C63.0476 196.922 63.1555 196.584 63.3714 196.294C63.5874 196.004 63.8857 195.778 64.2663 195.616C64.647 195.452 65.0831 195.369 65.5746 195.369C66.282 195.369 66.8388 195.523 67.245 195.83C67.6513 196.134 67.9197 196.541 68.0504 197.053ZM69.5792 202V195.455H70.8533V202H69.5792ZM70.2227 194.445C70.0011 194.445 69.8107 194.371 69.6516 194.223C69.4954 194.072 69.4173 193.893 69.4173 193.686C69.4173 193.476 69.4954 193.297 69.6516 193.149C69.8107 192.999 70.0011 192.923 70.2227 192.923C70.4442 192.923 70.6332 192.999 70.7894 193.149C70.9485 193.297 71.0281 193.476 71.0281 193.686C71.0281 193.893 70.9485 194.072 70.7894 194.223C70.6332 194.371 70.4442 194.445 70.2227 194.445ZM75.3246 202.132C74.7109 202.132 74.1754 201.991 73.718 201.71C73.2607 201.429 72.9055 201.036 72.6527 200.53C72.3999 200.024 72.2734 199.433 72.2734 198.757C72.2734 198.078 72.3999 197.484 72.6527 196.976C72.9055 196.467 73.2607 196.072 73.718 195.791C74.1754 195.51 74.7109 195.369 75.3246 195.369C75.9382 195.369 76.4737 195.51 76.9311 195.791C77.3885 196.072 77.7436 196.467 77.9964 196.976C78.2493 197.484 78.3757 198.078 78.3757 198.757C78.3757 199.433 78.2493 200.024 77.9964 200.53C77.7436 201.036 77.3885 201.429 76.9311 201.71C76.4737 201.991 75.9382 202.132 75.3246 202.132ZM75.3288 201.062C75.7266 201.062 76.0561 200.957 76.3175 200.747C76.5788 200.537 76.772 200.257 76.897 199.908C77.0249 199.558 77.0888 199.173 77.0888 198.753C77.0888 198.335 77.0249 197.952 76.897 197.602C76.772 197.25 76.5788 196.967 76.3175 196.754C76.0561 196.541 75.7266 196.435 75.3288 196.435C74.9283 196.435 74.5959 196.541 74.3317 196.754C74.0703 196.967 73.8757 197.25 73.7479 197.602C73.6229 197.952 73.5604 198.335 73.5604 198.753C73.5604 199.173 73.6229 199.558 73.7479 199.908C73.8757 200.257 74.0703 200.537 74.3317 200.747C74.5959 200.957 74.9283 201.062 75.3288 201.062ZM81.0721 198.114V202H79.7979V195.455H81.021V196.52H81.1019C81.2525 196.173 81.4883 195.895 81.8093 195.685C82.1332 195.474 82.5408 195.369 83.0323 195.369C83.4783 195.369 83.869 195.463 84.2042 195.651C84.5394 195.835 84.7994 196.111 84.984 196.477C85.1687 196.844 85.261 197.297 85.261 197.837V202H83.9869V197.99C83.9869 197.516 83.8633 197.145 83.6161 196.878C83.369 196.608 83.0295 196.473 82.5977 196.473C82.3022 196.473 82.0394 196.537 81.8093 196.665C81.582 196.793 81.4016 196.98 81.2681 197.227C81.1374 197.472 81.0721 197.767 81.0721 198.114ZM92.9027 202.132C92.2891 202.132 91.7536 201.991 91.2962 201.71C90.8388 201.429 90.4837 201.036 90.2308 200.53C89.978 200.024 89.8516 199.433 89.8516 198.757C89.8516 198.078 89.978 197.484 90.2308 196.976C90.4837 196.467 90.8388 196.072 91.2962 195.791C91.7536 195.51 92.2891 195.369 92.9027 195.369C93.5163 195.369 94.0518 195.51 94.5092 195.791C94.9666 196.072 95.3217 196.467 95.5746 196.976C95.8274 197.484 95.9538 198.078 95.9538 198.757C95.9538 199.433 95.8274 200.024 95.5746 200.53C95.3217 201.036 94.9666 201.429 94.5092 201.71C94.0518 201.991 93.5163 202.132 92.9027 202.132ZM92.907 201.062C93.3047 201.062 93.6342 200.957 93.8956 200.747C94.157 200.537 94.3501 200.257 94.4751 199.908C94.603 199.558 94.6669 199.173 94.6669 198.753C94.6669 198.335 94.603 197.952 94.4751 197.602C94.3501 197.25 94.157 196.967 93.8956 196.754C93.6342 196.541 93.3047 196.435 92.907 196.435C92.5064 196.435 92.174 196.541 91.9098 196.754C91.6484 196.967 91.4538 197.25 91.326 197.602C91.201 197.952 91.1385 198.335 91.1385 198.753C91.1385 199.173 91.201 199.558 91.326 199.908C91.4538 200.257 91.6484 200.537 91.9098 200.747C92.174 200.957 92.5064 201.062 92.907 201.062ZM100.491 195.455V196.477H96.7923V195.455H100.491ZM97.8065 202V194.696C97.8065 194.287 97.896 193.947 98.0749 193.678C98.2539 193.405 98.4911 193.202 98.7866 193.068C99.082 192.932 99.4031 192.864 99.7496 192.864C100.005 192.864 100.224 192.885 100.406 192.928C100.588 192.967 100.723 193.004 100.811 193.038L100.512 194.07C100.453 194.053 100.376 194.033 100.282 194.01C100.189 193.984 100.075 193.972 99.9414 193.972C99.6317 193.972 99.4102 194.048 99.2766 194.202C99.146 194.355 99.0806 194.577 99.0806 194.866V202H97.8065ZM105.847 193.273L108.276 200.381H108.374L110.803 193.273H112.226L109.085 202H107.564L104.423 193.273H105.847ZM115.549 202.132C114.904 202.132 114.348 201.994 113.882 201.719C113.419 201.44 113.061 201.05 112.809 200.547C112.559 200.041 112.434 199.449 112.434 198.77C112.434 198.099 112.559 197.509 112.809 196.997C113.061 196.486 113.414 196.087 113.865 195.8C114.32 195.513 114.851 195.369 115.459 195.369C115.828 195.369 116.186 195.43 116.533 195.553C116.88 195.675 117.191 195.866 117.466 196.128C117.742 196.389 117.959 196.729 118.118 197.146C118.277 197.561 118.357 198.065 118.357 198.659V199.111H113.154V198.156H117.108C117.108 197.821 117.04 197.524 116.904 197.266C116.767 197.004 116.576 196.798 116.328 196.648C116.084 196.497 115.797 196.422 115.468 196.422C115.11 196.422 114.797 196.51 114.53 196.686C114.266 196.859 114.061 197.087 113.917 197.368C113.775 197.646 113.703 197.949 113.703 198.276V199.021C113.703 199.459 113.78 199.831 113.934 200.138C114.09 200.445 114.307 200.679 114.586 200.841C114.864 201 115.189 201.08 115.561 201.08C115.803 201.08 116.023 201.045 116.222 200.977C116.421 200.906 116.593 200.801 116.738 200.662C116.882 200.523 116.993 200.351 117.07 200.146L118.276 200.364C118.179 200.719 118.006 201.03 117.756 201.297C117.509 201.561 117.198 201.767 116.823 201.915C116.451 202.06 116.026 202.132 115.549 202.132ZM121.045 198.114V202H119.771V195.455H120.994V196.52H121.075C121.225 196.173 121.461 195.895 121.782 195.685C122.106 195.474 122.513 195.369 123.005 195.369C123.451 195.369 123.842 195.463 124.177 195.651C124.512 195.835 124.772 196.111 124.957 196.477C125.141 196.844 125.234 197.297 125.234 197.837V202H123.96V197.99C123.96 197.516 123.836 197.145 123.589 196.878C123.342 196.608 123.002 196.473 122.57 196.473C122.275 196.473 122.012 196.537 121.782 196.665C121.555 196.793 121.374 196.98 121.241 197.227C121.11 197.472 121.045 197.767 121.045 198.114ZM129.998 195.455V196.477H126.423V195.455H129.998ZM127.381 193.886H128.656V200.078C128.656 200.325 128.692 200.511 128.766 200.636C128.84 200.759 128.935 200.842 129.052 200.888C129.171 200.93 129.3 200.952 129.44 200.952C129.542 200.952 129.631 200.945 129.708 200.93C129.785 200.916 129.844 200.905 129.887 200.896L130.117 201.949C130.043 201.977 129.938 202.006 129.802 202.034C129.665 202.065 129.495 202.082 129.29 202.085C128.955 202.091 128.643 202.031 128.353 201.906C128.063 201.781 127.829 201.588 127.65 201.327C127.471 201.065 127.381 200.737 127.381 200.342V193.886ZM131.407 202V195.455H132.681V202H131.407ZM132.051 194.445C131.829 194.445 131.639 194.371 131.48 194.223C131.324 194.072 131.245 193.893 131.245 193.686C131.245 193.476 131.324 193.297 131.48 193.149C131.639 192.999 131.829 192.923 132.051 192.923C132.272 192.923 132.461 192.999 132.618 193.149C132.777 193.297 132.856 193.476 132.856 193.686C132.856 193.893 132.777 194.072 132.618 194.223C132.461 194.371 132.272 194.445 132.051 194.445ZM135.401 195.455L136.846 198.003L138.303 195.455H139.697L137.656 198.727L139.714 202H138.32L136.846 199.554L135.376 202H133.978L136.015 198.727L134.004 195.455H135.401ZM143.568 202.132C142.923 202.132 142.368 201.994 141.902 201.719C141.439 201.44 141.081 201.05 140.828 200.547C140.578 200.041 140.453 199.449 140.453 198.77C140.453 198.099 140.578 197.509 140.828 196.997C141.081 196.486 141.433 196.087 141.885 195.8C142.339 195.513 142.871 195.369 143.479 195.369C143.848 195.369 144.206 195.43 144.553 195.553C144.899 195.675 145.21 195.866 145.486 196.128C145.761 196.389 145.979 196.729 146.138 197.146C146.297 197.561 146.376 198.065 146.376 198.659V199.111H141.173V198.156H145.128C145.128 197.821 145.06 197.524 144.923 197.266C144.787 197.004 144.595 196.798 144.348 196.648C144.104 196.497 143.817 196.422 143.487 196.422C143.129 196.422 142.817 196.51 142.55 196.686C142.286 196.859 142.081 197.087 141.936 197.368C141.794 197.646 141.723 197.949 141.723 198.276V199.021C141.723 199.459 141.8 199.831 141.953 200.138C142.109 200.445 142.327 200.679 142.605 200.841C142.884 201 143.209 201.08 143.581 201.08C143.822 201.08 144.043 201.045 144.241 200.977C144.44 200.906 144.612 200.801 144.757 200.662C144.902 200.523 145.013 200.351 145.089 200.146L146.295 200.364C146.199 200.719 146.026 201.03 145.776 201.297C145.528 201.561 145.217 201.767 144.842 201.915C144.47 202.06 144.045 202.132 143.568 202.132Z" fill="#37437D"/>
<rect x="16" y="224" width="159" height="36" rx="18" fill="#943599" fill-opacity="0.33"/>
<rect x="16" y="224" width="159" height="36" rx="18" fill="black" fill-opacity="0.2"/>
<rect x="16" y="224" width="159" height="36" rx="18" fill="black" fill-opacity="0.2"/>
<path d="M48.9249 238.406V237.273H55.6792V238.406H52.9561V246H51.6436V238.406H48.9249ZM56.3897 246V239.455H57.6213V240.494H57.6895C57.8088 240.142 58.019 239.865 58.3201 239.663C58.6241 239.459 58.9679 239.357 59.3514 239.357C59.4309 239.357 59.5247 239.359 59.6326 239.365C59.7434 239.371 59.8301 239.378 59.8926 239.386V240.605C59.8414 240.591 59.7505 240.575 59.6199 240.558C59.4892 240.538 59.3585 240.528 59.2278 240.528C58.9267 240.528 58.6582 240.592 58.4224 240.72C58.1895 240.845 58.0048 241.02 57.8684 241.244C57.7321 241.466 57.6639 241.719 57.6639 242.003V246H56.3897ZM61.9998 248.455C61.8095 248.455 61.6362 248.439 61.4799 248.408C61.3237 248.379 61.2072 248.348 61.1305 248.314L61.4373 247.27C61.6703 247.332 61.8777 247.359 62.0595 247.351C62.2413 247.342 62.4018 247.274 62.541 247.146C62.6831 247.018 62.8081 246.81 62.916 246.52L63.0737 246.085L60.6788 239.455H62.0424L63.7001 244.534H63.7683L65.426 239.455H66.7939L64.0964 246.874C63.9714 247.214 63.8123 247.503 63.6191 247.739C63.426 247.977 63.1958 248.156 62.9288 248.276C62.6618 248.395 62.3521 248.455 61.9998 248.455ZM78.3134 237.273V246H77.1032L72.6671 239.599H72.5861V246H71.2694V237.273H72.4881L76.9284 243.682H77.0094V237.273H78.3134ZM82.9529 246.132C82.3081 246.132 81.7527 245.994 81.2868 245.719C80.8237 245.44 80.4657 245.05 80.2129 244.547C79.9629 244.041 79.8379 243.449 79.8379 242.77C79.8379 242.099 79.9629 241.509 80.2129 240.997C80.4657 240.486 80.818 240.087 81.2697 239.8C81.7243 239.513 82.2555 239.369 82.8635 239.369C83.2328 239.369 83.5907 239.43 83.9373 239.553C84.2839 239.675 84.595 239.866 84.8706 240.128C85.1461 240.389 85.3635 240.729 85.5226 241.146C85.6816 241.561 85.7612 242.065 85.7612 242.659V243.111H80.5581V242.156H84.5126C84.5126 241.821 84.4444 241.524 84.3081 241.266C84.1717 241.004 83.9799 240.798 83.7328 240.648C83.4885 240.497 83.2015 240.422 82.872 240.422C82.514 240.422 82.2015 240.51 81.9345 240.686C81.6703 240.859 81.4657 241.087 81.3208 241.368C81.1788 241.646 81.1078 241.949 81.1078 242.276V243.021C81.1078 243.459 81.1845 243.831 81.3379 244.138C81.4941 244.445 81.7115 244.679 81.9899 244.841C82.2683 245 82.5936 245.08 82.9657 245.08C83.2072 245.08 83.4274 245.045 83.6262 244.977C83.8251 244.906 83.997 244.801 84.1419 244.662C84.2868 244.523 84.3975 244.351 84.4743 244.146L85.6802 244.364C85.5836 244.719 85.4103 245.03 85.1603 245.297C84.9132 245.561 84.6021 245.767 84.2271 245.915C83.8549 246.06 83.4302 246.132 82.9529 246.132ZM88.5822 246L86.6561 239.455H87.9728L89.2555 244.261H89.3194L90.6064 239.455H91.9231L93.2015 244.24H93.2654L94.5396 239.455H95.8564L93.9345 246H92.6348L91.3052 241.274H91.2072L89.8777 246H88.5822ZM101.106 237.273L103.535 244.381H103.633L106.062 237.273H107.486L104.345 246H102.824L99.6831 237.273H101.106ZM110.808 246.132C110.164 246.132 109.608 245.994 109.142 245.719C108.679 245.44 108.321 245.05 108.068 244.547C107.818 244.041 107.693 243.449 107.693 242.77C107.693 242.099 107.818 241.509 108.068 240.997C108.321 240.486 108.673 240.087 109.125 239.8C109.58 239.513 110.111 239.369 110.719 239.369C111.088 239.369 111.446 239.43 111.793 239.553C112.139 239.675 112.45 239.866 112.726 240.128C113.002 240.389 113.219 240.729 113.378 241.146C113.537 241.561 113.617 242.065 113.617 242.659V243.111H108.414V242.156H112.368C112.368 241.821 112.3 241.524 112.164 241.266C112.027 241.004 111.835 240.798 111.588 240.648C111.344 240.497 111.057 240.422 110.727 240.422C110.369 240.422 110.057 240.51 109.79 240.686C109.526 240.859 109.321 241.087 109.176 241.368C109.034 241.646 108.963 241.949 108.963 242.276V243.021C108.963 243.459 109.04 243.831 109.193 244.138C109.35 244.445 109.567 244.679 109.845 244.841C110.124 245 110.449 245.08 110.821 245.08C111.063 245.08 111.283 245.045 111.482 244.977C111.681 244.906 111.852 244.801 111.997 244.662C112.142 244.523 112.253 244.351 112.33 244.146L113.536 244.364C113.439 244.719 113.266 245.03 113.016 245.297C112.769 245.561 112.458 245.767 112.083 245.915C111.71 246.06 111.286 246.132 110.808 246.132ZM115.03 246V239.455H116.262V240.494H116.33C116.449 240.142 116.66 239.865 116.961 239.663C117.265 239.459 117.608 239.357 117.992 239.357C118.072 239.357 118.165 239.359 118.273 239.365C118.384 239.371 118.471 239.378 118.533 239.386V240.605C118.482 240.591 118.391 240.575 118.26 240.558C118.13 240.538 117.999 240.528 117.868 240.528C117.567 240.528 117.299 240.592 117.063 240.72C116.83 240.845 116.645 241.02 116.509 241.244C116.373 241.466 116.305 241.719 116.305 242.003V246H115.03ZM124.541 241.053L123.386 241.257C123.338 241.109 123.261 240.969 123.156 240.835C123.053 240.702 122.914 240.592 122.738 240.507C122.562 240.422 122.342 240.379 122.078 240.379C121.717 240.379 121.416 240.46 121.174 240.622C120.933 240.781 120.812 240.987 120.812 241.24C120.812 241.459 120.893 241.635 121.055 241.768C121.217 241.902 121.478 242.011 121.839 242.097L122.879 242.335C123.481 242.474 123.93 242.689 124.225 242.979C124.521 243.268 124.669 243.645 124.669 244.108C124.669 244.5 124.555 244.849 124.328 245.156C124.103 245.46 123.789 245.699 123.386 245.872C122.985 246.045 122.521 246.132 121.992 246.132C121.259 246.132 120.661 245.976 120.198 245.663C119.735 245.348 119.451 244.901 119.346 244.321L120.578 244.134C120.654 244.455 120.812 244.697 121.051 244.862C121.289 245.024 121.6 245.105 121.984 245.105C122.401 245.105 122.735 245.018 122.985 244.845C123.235 244.669 123.36 244.455 123.36 244.202C123.36 243.997 123.284 243.825 123.13 243.686C122.98 243.547 122.748 243.442 122.436 243.371L121.328 243.128C120.717 242.989 120.265 242.767 119.972 242.463C119.683 242.159 119.538 241.774 119.538 241.308C119.538 240.922 119.646 240.584 119.862 240.294C120.078 240.004 120.376 239.778 120.757 239.616C121.137 239.452 121.573 239.369 122.065 239.369C122.772 239.369 123.329 239.523 123.735 239.83C124.142 240.134 124.41 240.541 124.541 241.053ZM126.069 246V239.455H127.344V246H126.069ZM126.713 238.445C126.491 238.445 126.301 238.371 126.142 238.223C125.986 238.072 125.907 237.893 125.907 237.686C125.907 237.476 125.986 237.297 126.142 237.149C126.301 236.999 126.491 236.923 126.713 236.923C126.934 236.923 127.123 236.999 127.28 237.149C127.439 237.297 127.518 237.476 127.518 237.686C127.518 237.893 127.439 238.072 127.28 238.223C127.123 238.371 126.934 238.445 126.713 238.445ZM131.815 246.132C131.201 246.132 130.666 245.991 130.208 245.71C129.751 245.429 129.396 245.036 129.143 244.53C128.89 244.024 128.764 243.433 128.764 242.757C128.764 242.078 128.89 241.484 129.143 240.976C129.396 240.467 129.751 240.072 130.208 239.791C130.666 239.51 131.201 239.369 131.815 239.369C132.428 239.369 132.964 239.51 133.421 239.791C133.879 240.072 134.234 240.467 134.487 240.976C134.74 241.484 134.866 242.078 134.866 242.757C134.866 243.433 134.74 244.024 134.487 244.53C134.234 245.036 133.879 245.429 133.421 245.71C132.964 245.991 132.428 246.132 131.815 246.132ZM131.819 245.062C132.217 245.062 132.546 244.957 132.808 244.747C133.069 244.537 133.262 244.257 133.387 243.908C133.515 243.558 133.579 243.173 133.579 242.753C133.579 242.335 133.515 241.952 133.387 241.602C133.262 241.25 133.069 240.967 132.808 240.754C132.546 240.541 132.217 240.435 131.819 240.435C131.419 240.435 131.086 240.541 130.822 240.754C130.561 240.967 130.366 241.25 130.238 241.602C130.113 241.952 130.051 242.335 130.051 242.753C130.051 243.173 130.113 243.558 130.238 243.908C130.366 244.257 130.561 244.537 130.822 244.747C131.086 244.957 131.419 245.062 131.819 245.062ZM137.562 242.114V246H136.288V239.455H137.511V240.52H137.592C137.743 240.173 137.979 239.895 138.3 239.685C138.623 239.474 139.031 239.369 139.523 239.369C139.969 239.369 140.359 239.463 140.694 239.651C141.03 239.835 141.29 240.111 141.474 240.477C141.659 240.844 141.751 241.297 141.751 241.837V246H140.477V241.99C140.477 241.516 140.354 241.145 140.106 240.878C139.859 240.608 139.52 240.473 139.088 240.473C138.792 240.473 138.53 240.537 138.3 240.665C138.072 240.793 137.892 240.98 137.758 241.227C137.628 241.472 137.562 241.767 137.562 242.114Z" fill="white"/>
<defs>
<linearGradient id="paint0_linear_468_9298" x1="150.756" y1="136.486" x2="77.6942" y2="57.3921" gradientUnits="userSpaceOnUse">
<stop stop-color="#F26CF9"/>
<stop offset="1" stop-color="#EEEFFF"/>
</linearGradient>
<linearGradient id="paint1_linear_468_9298" x1="48.3254" y1="56.663" x2="78.3977" y2="56.2316" gradientUnits="userSpaceOnUse">
<stop offset="0.180068" stop-color="#F26CF9"/>
<stop offset="1" stop-color="#460F48"/>
</linearGradient>
<linearGradient id="paint2_linear_468_9298" x1="48" y1="80" x2="76.0985" y2="84.046" gradientUnits="userSpaceOnUse">
<stop stop-color="#262C4A"/>
<stop offset="1" stop-color="#1E233B"/>
</linearGradient>
<linearGradient id="paint3_linear_468_9298" x1="45.09" y1="96.4466" x2="77.9541" y2="96.4466" gradientUnits="userSpaceOnUse">
<stop offset="0.201406" stop-color="#F26CF9"/>
<stop offset="0.821226" stop-color="#7B1D80"/>
</linearGradient>
<linearGradient id="paint4_linear_468_9298" x1="62.8172" y1="74.3976" x2="130.075" y2="72.9199" gradientUnits="userSpaceOnUse">
<stop stop-color="#3B4164"/>
<stop offset="1" stop-color="#1E233B"/>
</linearGradient>
<linearGradient id="paint5_linear_468_9298" x1="130.512" y1="17.0713" x2="49.7307" y2="144.601" gradientUnits="userSpaceOnUse">
<stop stop-color="#FCD3FE"/>
<stop offset="1" stop-color="#C256C7"/>
</linearGradient>
<linearGradient id="paint6_linear_468_9298" x1="126.738" y1="52.1332" x2="131.103" y2="63.1172" gradientUnits="userSpaceOnUse">
<stop stop-color="#F26CF9"/>
<stop offset="1" stop-color="#262C4A"/>
</linearGradient>
<linearGradient id="paint7_linear_468_9298" x1="117.684" y1="58.474" x2="125.751" y2="76.8824" gradientUnits="userSpaceOnUse">
<stop stop-color="#F9B776"/>
<stop offset="1" stop-color="#F47960"/>
</linearGradient>
<linearGradient id="paint8_linear_468_9298" x1="142.779" y1="122.397" x2="146.5" y2="122.397" gradientUnits="userSpaceOnUse">
<stop stop-color="#3B4164"/>
<stop offset="1" stop-color="#1E233B"/>
</linearGradient>
<linearGradient id="paint9_linear_468_9298" x1="127.056" y1="137.027" x2="132.379" y2="74.6254" gradientUnits="userSpaceOnUse">
<stop stop-color="#F9B776"/>
<stop offset="1" stop-color="#F47960"/>
</linearGradient>
<linearGradient id="paint10_linear_468_9298" x1="125.491" y1="121.72" x2="131.512" y2="121.72" gradientUnits="userSpaceOnUse">
<stop stop-color="#3B4164"/>
<stop offset="1" stop-color="#1E233B"/>
</linearGradient>
<linearGradient id="paint11_linear_468_9298" x1="137.827" y1="137.956" x2="143.152" y2="75.5374" gradientUnits="userSpaceOnUse">
<stop stop-color="#F9B776"/>
<stop offset="1" stop-color="#F47960"/>
</linearGradient>
<linearGradient id="paint12_linear_468_9298" x1="141.937" y1="75.3174" x2="128.606" y2="96.71" gradientUnits="userSpaceOnUse">
<stop stop-color="#F26CF9"/>
<stop offset="1" stop-color="#3B4164"/>
</linearGradient>
<linearGradient id="paint13_linear_468_9298" x1="126.887" y1="51.6258" x2="128.166" y2="75.0837" gradientUnits="userSpaceOnUse">
<stop stop-color="#F9B776"/>
<stop offset="1" stop-color="#F47960"/>
</linearGradient>
<linearGradient id="paint14_linear_468_9298" x1="123.93" y1="66.0606" x2="132.666" y2="50.4657" gradientUnits="userSpaceOnUse">
<stop stop-color="#F9B776"/>
<stop offset="1" stop-color="#FCD3FE"/>
</linearGradient>
<linearGradient id="paint15_linear_468_9298" x1="125.817" y1="52.4992" x2="130.183" y2="63.4832" gradientUnits="userSpaceOnUse">
<stop stop-color="#F26CF9"/>
<stop offset="1" stop-color="#1E233B"/>
</linearGradient>
<linearGradient id="paint16_linear_468_9298" x1="125.798" y1="67.1073" x2="134.535" y2="51.5123" gradientUnits="userSpaceOnUse">
<stop stop-color="#F9B776"/>
<stop offset="1" stop-color="#F47960"/>
</linearGradient>
<linearGradient id="paint17_linear_468_9298" x1="116.082" y1="59.176" x2="124.149" y2="77.5844" gradientUnits="userSpaceOnUse">
<stop stop-color="#F9B776"/>
<stop offset="1" stop-color="#F47960"/>
</linearGradient>
<linearGradient id="paint18_linear_468_9298" x1="120.331" y1="37.3363" x2="107.343" y2="64.1228" gradientUnits="userSpaceOnUse">
<stop stop-color="#F9B776"/>
<stop offset="0.5821" stop-color="#F69369"/>
<stop offset="1" stop-color="#F47960"/>
</linearGradient>
<linearGradient id="paint19_linear_468_9298" x1="130.614" y1="79.0957" x2="137.296" y2="79.0957" gradientUnits="userSpaceOnUse">
<stop stop-color="#F9B776"/>
<stop offset="1" stop-color="#F47960"/>
</linearGradient>
<clipPath id="clip0_468_9298">
<rect width="102" height="100" fill="white" transform="translate(44.5 24)"/>
</clipPath>
</defs>
</svg>
