<svg width="24" height="24" viewBox="0 0 24 24" fill="none" xmlns="http://www.w3.org/2000/svg">
<path fill-rule="evenodd" clip-rule="evenodd" d="M17.0429 6.04289C17.4334 5.65237 18.0666 5.65237 18.4571 6.04289L23.7071 11.2929C24.0976 11.6834 24.0976 12.3166 23.7071 12.7071L18.4571 17.9571C18.0666 18.3476 17.4334 18.3476 17.0429 17.9571C16.6524 17.5666 16.6524 16.9334 17.0429 16.5429L21.5858 12L17.0429 7.45711C16.6524 7.06658 16.6524 6.43342 17.0429 6.04289Z" fill="#1E1E20"/>
<path fill-rule="evenodd" clip-rule="evenodd" d="M8 12C8 11.4477 8.44771 11 9 11H23C23.5523 11 24 11.4477 24 12C24 12.5523 23.5523 13 23 13H9C8.44771 13 8 12.5523 8 12Z" fill="#1E1E20"/>
<path fill-rule="evenodd" clip-rule="evenodd" d="M0.585787 0.585787C0.960859 0.210714 1.46957 0 2 0H9C9.55229 0 10 0.447715 10 1C10 1.55228 9.55229 2 9 2L2 2L2 22H9C9.55229 22 10 22.4477 10 23C10 23.5523 9.55229 24 9 24H2C1.46957 24 0.960861 23.7893 0.585787 23.4142C0.210714 23.0391 0 22.5304 0 22V2C0 1.46957 0.210714 0.960859 0.585787 0.585787Z" fill="#1E1E20"/>
</svg>
