<svg width="20" height="20" viewBox="0 0 20 20" fill="currentColor" xmlns="http://www.w3.org/2000/svg">
<path d="M16.7773 16.5398L11.8866 8.85391L16.7124 3.54531C16.8216 3.42228 16.8778 3.2612 16.869 3.09697C16.8601 2.93275 16.7869 2.77862 16.6652 2.66801C16.5435 2.5574 16.3831 2.49923 16.2188 2.50609C16.0545 2.51296 15.8995 2.58431 15.7874 2.70469L11.1905 7.76094L8.02726 2.78984C7.97085 2.70106 7.89295 2.62795 7.80076 2.57728C7.70858 2.52661 7.6051 2.50003 7.49991 2.5H3.74991C3.63785 2.49995 3.52784 2.53002 3.43139 2.58708C3.33494 2.64413 3.2556 2.72607 3.20169 2.82431C3.14778 2.92255 3.12127 3.03348 3.12494 3.14548C3.12862 3.25749 3.16234 3.36644 3.22257 3.46094L8.11319 11.1461L3.28741 16.4586C3.23106 16.5191 3.18728 16.5902 3.15861 16.6678C3.12995 16.7454 3.11697 16.8279 3.12042 16.9105C3.12387 16.9932 3.14369 17.0743 3.17873 17.1492C3.21376 17.2241 3.26332 17.2914 3.32453 17.347C3.38574 17.4026 3.45738 17.4455 3.5353 17.4733C3.61321 17.501 3.69586 17.513 3.77845 17.5085C3.86104 17.5041 3.94192 17.4833 4.01641 17.4474C4.09091 17.4114 4.15753 17.3611 4.21241 17.2992L8.80929 12.243L11.9726 17.2141C12.0294 17.3021 12.1075 17.3745 12.1997 17.4244C12.2918 17.4744 12.3951 17.5004 12.4999 17.5H16.2499C16.3619 17.5 16.4717 17.4699 16.5681 17.4128C16.6644 17.3558 16.7436 17.274 16.7975 17.1759C16.8514 17.0778 16.878 16.967 16.8744 16.8551C16.8708 16.7432 16.8373 16.6343 16.7773 16.5398ZM12.8429 16.25L4.88819 3.75H7.15382L15.1116 16.25H12.8429Z" fill="#C3C3C4"/>
</svg>
